<?xml version="1.0" standalone="no"?>
 <!DOCTYPE svg PUBLIC "-//W3C//DTD SVG 1.1//EN" 
 "http://www.w3.org/Graphics/SVG/1.1/DTD/svg11.dtd"> 
<svg
  xmlns:svg="http://www.w3.org/2000/svg"
  xmlns="http://www.w3.org/2000/svg"
  xmlns:xlink="http://www.w3.org/1999/xlink"
  version="1.1"
  width="29.700220cm" height="21.000720cm" viewBox="0 0 116930 82680">
<title>SVG Picture created as Pi-Output-Protection-Pi-Output-Protection.svg date 2021/01/18 18:24:16 </title>
  <desc>Picture generated by Eeschema-SVG </desc>
<g style="fill:#000000; fill-opacity:1;stroke:#000000; stroke-opacity:1;
stroke-linecap:round; stroke-linejoin:round;"
 transform="translate(0 0) scale(1 1)">
</g>
<g style="fill:#000000; fill-opacity:0.0; 
stroke:#000000; stroke-width:-10; stroke-opacity:1; 
stroke-linecap:round; stroke-linejoin:round;">
</g>
<g style="fill:#840000; fill-opacity:0.0; 
stroke:#840000; stroke-width:-10; stroke-opacity:1; 
stroke-linecap:round; stroke-linejoin:round;">
</g>
<g style="fill:#840000; fill-opacity:0.0; 
stroke:#840000; stroke-width:100; stroke-opacity:1; 
stroke-linecap:round; stroke-linejoin:round;">
</g>
<g style="fill:#840000; fill-opacity:0.0; 
stroke:#840000; stroke-width:60; stroke-opacity:1; 
stroke-linecap:round; stroke-linejoin:round;">
<rect x="69690" y="65360" width="42520" height="12600" rx="0" />
</g>
<g style="fill:#840000; fill-opacity:0.0; 
stroke:#840000; stroke-width:100; stroke-opacity:1; 
stroke-linecap:round; stroke-linejoin:round;">
</g>
<g style="fill:#840000; fill-opacity:0.0; 
stroke:#840000; stroke-width:60; stroke-opacity:1; 
stroke-linecap:round; stroke-linejoin:round;">
<rect x="3940" y="3940" width="109050" height="74800" rx="0" />
</g>
<g style="fill:#840000; fill-opacity:0.0; 
stroke:#840000; stroke-width:100; stroke-opacity:1; 
stroke-linecap:round; stroke-linejoin:round;">
</g>
<g style="fill:#840000; fill-opacity:0.0; 
stroke:#840000; stroke-width:60; stroke-opacity:1; 
stroke-linecap:round; stroke-linejoin:round;">
<rect x="4720" y="4720" width="107490" height="73240" rx="0" />
</g>
<g style="fill:#840000; fill-opacity:0.0; 
stroke:#840000; stroke-width:100; stroke-opacity:1; 
stroke-linecap:round; stroke-linejoin:round;">
</g>
<g style="fill:#840000; fill-opacity:0.0; 
stroke:#840000; stroke-width:60; stroke-opacity:1; 
stroke-linecap:round; stroke-linejoin:round;">
<path d="M23620 4720
L23620 3940
" />
</g>
<g style="fill:#840000; fill-opacity:0.0; 
stroke:#840000; stroke-width:100; stroke-opacity:1; 
stroke-linecap:round; stroke-linejoin:round;">
</g>
<g style="fill:#840000; fill-opacity:0.0; 
stroke:#840000; stroke-width:60; stroke-opacity:1; 
stroke-linecap:round; stroke-linejoin:round;">
<path d="M43310 4720
L43310 3940
" />
</g>
<g style="fill:#840000; fill-opacity:0.0; 
stroke:#840000; stroke-width:100; stroke-opacity:1; 
stroke-linecap:round; stroke-linejoin:round;">
</g>
<g style="fill:#840000; fill-opacity:0.0; 
stroke:#840000; stroke-width:60; stroke-opacity:1; 
stroke-linecap:round; stroke-linejoin:round;">
<path d="M62990 4720
L62990 3940
" />
</g>
<g style="fill:#840000; fill-opacity:0.0; 
stroke:#840000; stroke-width:100; stroke-opacity:1; 
stroke-linecap:round; stroke-linejoin:round;">
</g>
<g style="fill:#840000; fill-opacity:0.0; 
stroke:#840000; stroke-width:60; stroke-opacity:1; 
stroke-linecap:round; stroke-linejoin:round;">
<path d="M82680 4720
L82680 3940
" />
</g>
<g style="fill:#840000; fill-opacity:0.0; 
stroke:#840000; stroke-width:100; stroke-opacity:1; 
stroke-linecap:round; stroke-linejoin:round;">
</g>
<g style="fill:#840000; fill-opacity:0.0; 
stroke:#840000; stroke-width:60; stroke-opacity:1; 
stroke-linecap:round; stroke-linejoin:round;">
<path d="M102360 4720
L102360 3940
" />
</g>
<g style="fill:#840000; fill-opacity:0.0; 
stroke:#840000; stroke-width:100; stroke-opacity:1; 
stroke-linecap:round; stroke-linejoin:round;">
</g>
<g style="fill:#840000; fill-opacity:0.0; 
stroke:#840000; stroke-width:60; stroke-opacity:1; 
stroke-linecap:round; stroke-linejoin:round;">
<text x="13780" y="4580"
textLength="550" font-size="680" lengthAdjust="spacingAndGlyphs"
text-anchor="start" opacity="0">1</text>
<path d="M14190 4560
L13900 4560
" />
<path d="M14050 4560
L14050 4050
L14000 4120
L13950 4170
L13900 4190
" />
</g>
<g style="fill:#840000; fill-opacity:0.0; 
stroke:#840000; stroke-width:100; stroke-opacity:1; 
stroke-linecap:round; stroke-linejoin:round;">
</g>
<g style="fill:#840000; fill-opacity:0.0; 
stroke:#840000; stroke-width:60; stroke-opacity:1; 
stroke-linecap:round; stroke-linejoin:round;">
<text x="33460" y="4580"
textLength="550" font-size="680" lengthAdjust="spacingAndGlyphs"
text-anchor="start" opacity="0">2</text>
<path d="M33580 4090
L33610 4070
L33660 4050
L33780 4050
L33830 4070
L33850 4090
L33870 4140
L33870 4190
L33850 4260
L33560 4560
L33870 4560
" />
</g>
<g style="fill:#840000; fill-opacity:0.0; 
stroke:#840000; stroke-width:100; stroke-opacity:1; 
stroke-linecap:round; stroke-linejoin:round;">
</g>
<g style="fill:#840000; fill-opacity:0.0; 
stroke:#840000; stroke-width:60; stroke-opacity:1; 
stroke-linecap:round; stroke-linejoin:round;">
<text x="53150" y="4580"
textLength="550" font-size="680" lengthAdjust="spacingAndGlyphs"
text-anchor="start" opacity="0">3</text>
<path d="M53250 4050
L53560 4050
L53390 4240
L53470 4240
L53520 4260
L53540 4290
L53560 4340
L53560 4460
L53540 4510
L53520 4530
L53470 4560
L53320 4560
L53270 4530
L53250 4510
" />
</g>
<g style="fill:#840000; fill-opacity:0.0; 
stroke:#840000; stroke-width:100; stroke-opacity:1; 
stroke-linecap:round; stroke-linejoin:round;">
</g>
<g style="fill:#840000; fill-opacity:0.0; 
stroke:#840000; stroke-width:60; stroke-opacity:1; 
stroke-linecap:round; stroke-linejoin:round;">
<text x="72830" y="4580"
textLength="550" font-size="680" lengthAdjust="spacingAndGlyphs"
text-anchor="start" opacity="0">4</text>
<path d="M73200 4220
L73200 4560
" />
<path d="M73070 4020
L72950 4390
L73270 4390
" />
</g>
<g style="fill:#840000; fill-opacity:0.0; 
stroke:#840000; stroke-width:100; stroke-opacity:1; 
stroke-linecap:round; stroke-linejoin:round;">
</g>
<g style="fill:#840000; fill-opacity:0.0; 
stroke:#840000; stroke-width:60; stroke-opacity:1; 
stroke-linecap:round; stroke-linejoin:round;">
<text x="92520" y="4580"
textLength="550" font-size="680" lengthAdjust="spacingAndGlyphs"
text-anchor="start" opacity="0">5</text>
<path d="M92910 4050
L92670 4050
L92640 4290
L92670 4260
L92720 4240
L92840 4240
L92890 4260
L92910 4290
L92930 4340
L92930 4460
L92910 4510
L92890 4530
L92840 4560
L92720 4560
L92670 4530
L92640 4510
" />
</g>
<g style="fill:#840000; fill-opacity:0.0; 
stroke:#840000; stroke-width:100; stroke-opacity:1; 
stroke-linecap:round; stroke-linejoin:round;">
</g>
<g style="fill:#840000; fill-opacity:0.0; 
stroke:#840000; stroke-width:60; stroke-opacity:1; 
stroke-linecap:round; stroke-linejoin:round;">
<text x="112200" y="4580"
textLength="550" font-size="680" lengthAdjust="spacingAndGlyphs"
text-anchor="start" opacity="0">6</text>
<path d="M112570 4050
L112470 4050
L112420 4070
L112400 4090
L112350 4170
L112320 4260
L112320 4460
L112350 4510
L112370 4530
L112420 4560
L112520 4560
L112570 4530
L112590 4510
L112610 4460
L112610 4340
L112590 4290
L112570 4260
L112520 4240
L112420 4240
L112370 4260
L112350 4290
L112320 4340
" />
</g>
<g style="fill:#840000; fill-opacity:0.0; 
stroke:#840000; stroke-width:100; stroke-opacity:1; 
stroke-linecap:round; stroke-linejoin:round;">
</g>
<g style="fill:#840000; fill-opacity:0.0; 
stroke:#840000; stroke-width:60; stroke-opacity:1; 
stroke-linecap:round; stroke-linejoin:round;">
<path d="M23620 77960
L23620 78740
" />
</g>
<g style="fill:#840000; fill-opacity:0.0; 
stroke:#840000; stroke-width:100; stroke-opacity:1; 
stroke-linecap:round; stroke-linejoin:round;">
</g>
<g style="fill:#840000; fill-opacity:0.0; 
stroke:#840000; stroke-width:60; stroke-opacity:1; 
stroke-linecap:round; stroke-linejoin:round;">
<path d="M43310 77960
L43310 78740
" />
</g>
<g style="fill:#840000; fill-opacity:0.0; 
stroke:#840000; stroke-width:100; stroke-opacity:1; 
stroke-linecap:round; stroke-linejoin:round;">
</g>
<g style="fill:#840000; fill-opacity:0.0; 
stroke:#840000; stroke-width:60; stroke-opacity:1; 
stroke-linecap:round; stroke-linejoin:round;">
<path d="M62990 77960
L62990 78740
" />
</g>
<g style="fill:#840000; fill-opacity:0.0; 
stroke:#840000; stroke-width:100; stroke-opacity:1; 
stroke-linecap:round; stroke-linejoin:round;">
</g>
<g style="fill:#840000; fill-opacity:0.0; 
stroke:#840000; stroke-width:60; stroke-opacity:1; 
stroke-linecap:round; stroke-linejoin:round;">
<path d="M82680 77960
L82680 78740
" />
</g>
<g style="fill:#840000; fill-opacity:0.0; 
stroke:#840000; stroke-width:100; stroke-opacity:1; 
stroke-linecap:round; stroke-linejoin:round;">
</g>
<g style="fill:#840000; fill-opacity:0.0; 
stroke:#840000; stroke-width:60; stroke-opacity:1; 
stroke-linecap:round; stroke-linejoin:round;">
<path d="M102360 77960
L102360 78740
" />
</g>
<g style="fill:#840000; fill-opacity:0.0; 
stroke:#840000; stroke-width:100; stroke-opacity:1; 
stroke-linecap:round; stroke-linejoin:round;">
</g>
<g style="fill:#840000; fill-opacity:0.0; 
stroke:#840000; stroke-width:60; stroke-opacity:1; 
stroke-linecap:round; stroke-linejoin:round;">
<text x="13780" y="78600"
textLength="550" font-size="680" lengthAdjust="spacingAndGlyphs"
text-anchor="start" opacity="0">1</text>
<path d="M14190 78580
L13900 78580
" />
<path d="M14050 78580
L14050 78070
L14000 78140
L13950 78190
L13900 78210
" />
</g>
<g style="fill:#840000; fill-opacity:0.0; 
stroke:#840000; stroke-width:100; stroke-opacity:1; 
stroke-linecap:round; stroke-linejoin:round;">
</g>
<g style="fill:#840000; fill-opacity:0.0; 
stroke:#840000; stroke-width:60; stroke-opacity:1; 
stroke-linecap:round; stroke-linejoin:round;">
<text x="33460" y="78600"
textLength="550" font-size="680" lengthAdjust="spacingAndGlyphs"
text-anchor="start" opacity="0">2</text>
<path d="M33580 78110
L33610 78090
L33660 78070
L33780 78070
L33830 78090
L33850 78110
L33870 78160
L33870 78210
L33850 78280
L33560 78580
L33870 78580
" />
</g>
<g style="fill:#840000; fill-opacity:0.0; 
stroke:#840000; stroke-width:100; stroke-opacity:1; 
stroke-linecap:round; stroke-linejoin:round;">
</g>
<g style="fill:#840000; fill-opacity:0.0; 
stroke:#840000; stroke-width:60; stroke-opacity:1; 
stroke-linecap:round; stroke-linejoin:round;">
<text x="53150" y="78600"
textLength="550" font-size="680" lengthAdjust="spacingAndGlyphs"
text-anchor="start" opacity="0">3</text>
<path d="M53250 78070
L53560 78070
L53390 78260
L53470 78260
L53520 78280
L53540 78310
L53560 78360
L53560 78480
L53540 78530
L53520 78550
L53470 78580
L53320 78580
L53270 78550
L53250 78530
" />
</g>
<g style="fill:#840000; fill-opacity:0.0; 
stroke:#840000; stroke-width:100; stroke-opacity:1; 
stroke-linecap:round; stroke-linejoin:round;">
</g>
<g style="fill:#840000; fill-opacity:0.0; 
stroke:#840000; stroke-width:60; stroke-opacity:1; 
stroke-linecap:round; stroke-linejoin:round;">
<text x="72830" y="78600"
textLength="550" font-size="680" lengthAdjust="spacingAndGlyphs"
text-anchor="start" opacity="0">4</text>
<path d="M73200 78240
L73200 78580
" />
<path d="M73070 78040
L72950 78410
L73270 78410
" />
</g>
<g style="fill:#840000; fill-opacity:0.0; 
stroke:#840000; stroke-width:100; stroke-opacity:1; 
stroke-linecap:round; stroke-linejoin:round;">
</g>
<g style="fill:#840000; fill-opacity:0.0; 
stroke:#840000; stroke-width:60; stroke-opacity:1; 
stroke-linecap:round; stroke-linejoin:round;">
<text x="92520" y="78600"
textLength="550" font-size="680" lengthAdjust="spacingAndGlyphs"
text-anchor="start" opacity="0">5</text>
<path d="M92910 78070
L92670 78070
L92640 78310
L92670 78280
L92720 78260
L92840 78260
L92890 78280
L92910 78310
L92930 78360
L92930 78480
L92910 78530
L92890 78550
L92840 78580
L92720 78580
L92670 78550
L92640 78530
" />
</g>
<g style="fill:#840000; fill-opacity:0.0; 
stroke:#840000; stroke-width:100; stroke-opacity:1; 
stroke-linecap:round; stroke-linejoin:round;">
</g>
<g style="fill:#840000; fill-opacity:0.0; 
stroke:#840000; stroke-width:60; stroke-opacity:1; 
stroke-linecap:round; stroke-linejoin:round;">
<text x="112200" y="78600"
textLength="550" font-size="680" lengthAdjust="spacingAndGlyphs"
text-anchor="start" opacity="0">6</text>
<path d="M112570 78070
L112470 78070
L112420 78090
L112400 78110
L112350 78190
L112320 78280
L112320 78480
L112350 78530
L112370 78550
L112420 78580
L112520 78580
L112570 78550
L112590 78530
L112610 78480
L112610 78360
L112590 78310
L112570 78280
L112520 78260
L112420 78260
L112370 78280
L112350 78310
L112320 78360
" />
</g>
<g style="fill:#840000; fill-opacity:0.0; 
stroke:#840000; stroke-width:100; stroke-opacity:1; 
stroke-linecap:round; stroke-linejoin:round;">
</g>
<g style="fill:#840000; fill-opacity:0.0; 
stroke:#840000; stroke-width:60; stroke-opacity:1; 
stroke-linecap:round; stroke-linejoin:round;">
<path d="M3940 23620
L4720 23620
" />
</g>
<g style="fill:#840000; fill-opacity:0.0; 
stroke:#840000; stroke-width:100; stroke-opacity:1; 
stroke-linecap:round; stroke-linejoin:round;">
</g>
<g style="fill:#840000; fill-opacity:0.0; 
stroke:#840000; stroke-width:60; stroke-opacity:1; 
stroke-linecap:round; stroke-linejoin:round;">
<path d="M3940 43310
L4720 43310
" />
</g>
<g style="fill:#840000; fill-opacity:0.0; 
stroke:#840000; stroke-width:100; stroke-opacity:1; 
stroke-linecap:round; stroke-linejoin:round;">
</g>
<g style="fill:#840000; fill-opacity:0.0; 
stroke:#840000; stroke-width:60; stroke-opacity:1; 
stroke-linecap:round; stroke-linejoin:round;">
<path d="M3940 62990
L4720 62990
" />
</g>
<g style="fill:#840000; fill-opacity:0.0; 
stroke:#840000; stroke-width:100; stroke-opacity:1; 
stroke-linecap:round; stroke-linejoin:round;">
</g>
<g style="fill:#840000; fill-opacity:0.0; 
stroke:#840000; stroke-width:60; stroke-opacity:1; 
stroke-linecap:round; stroke-linejoin:round;">
<text x="4330" y="14030"
textLength="500" font-size="680" lengthAdjust="spacingAndGlyphs"
text-anchor="middle" opacity="0">A</text>
<path d="M4200 13860
L4450 13860
" />
<path d="M4160 14010
L4330 13500
L4500 14010
" />
</g>
<g style="fill:#840000; fill-opacity:0.0; 
stroke:#840000; stroke-width:100; stroke-opacity:1; 
stroke-linecap:round; stroke-linejoin:round;">
</g>
<g style="fill:#840000; fill-opacity:0.0; 
stroke:#840000; stroke-width:60; stroke-opacity:1; 
stroke-linecap:round; stroke-linejoin:round;">
<text x="4330" y="33710"
textLength="570" font-size="680" lengthAdjust="spacingAndGlyphs"
text-anchor="middle" opacity="0">B</text>
<path d="M4360 33420
L4430 33440
L4460 33470
L4480 33520
L4480 33590
L4460 33640
L4430 33660
L4390 33690
L4190 33690
L4190 33180
L4360 33180
L4410 33200
L4430 33220
L4460 33270
L4460 33320
L4430 33370
L4410 33390
L4360 33420
L4190 33420
" />
</g>
<g style="fill:#840000; fill-opacity:0.0; 
stroke:#840000; stroke-width:100; stroke-opacity:1; 
stroke-linecap:round; stroke-linejoin:round;">
</g>
<g style="fill:#840000; fill-opacity:0.0; 
stroke:#840000; stroke-width:60; stroke-opacity:1; 
stroke-linecap:round; stroke-linejoin:round;">
<text x="4330" y="53400"
textLength="570" font-size="680" lengthAdjust="spacingAndGlyphs"
text-anchor="middle" opacity="0">C</text>
<path d="M4480 53330
L4460 53350
L4390 53380
L4340 53380
L4260 53350
L4220 53300
L4190 53250
L4170 53160
L4170 53080
L4190 52990
L4220 52940
L4260 52890
L4340 52870
L4390 52870
L4460 52890
L4480 52910
" />
</g>
<g style="fill:#840000; fill-opacity:0.0; 
stroke:#840000; stroke-width:100; stroke-opacity:1; 
stroke-linecap:round; stroke-linejoin:round;">
</g>
<g style="fill:#840000; fill-opacity:0.0; 
stroke:#840000; stroke-width:60; stroke-opacity:1; 
stroke-linecap:round; stroke-linejoin:round;">
<text x="4330" y="73080"
textLength="570" font-size="680" lengthAdjust="spacingAndGlyphs"
text-anchor="middle" opacity="0">D</text>
<path d="M4190 73060
L4190 72550
L4310 72550
L4390 72570
L4430 72620
L4460 72670
L4480 72760
L4480 72840
L4460 72930
L4430 72980
L4390 73030
L4310 73060
L4190 73060
" />
</g>
<g style="fill:#840000; fill-opacity:0.0; 
stroke:#840000; stroke-width:100; stroke-opacity:1; 
stroke-linecap:round; stroke-linejoin:round;">
</g>
<g style="fill:#840000; fill-opacity:0.0; 
stroke:#840000; stroke-width:60; stroke-opacity:1; 
stroke-linecap:round; stroke-linejoin:round;">
<path d="M112990 23620
L112210 23620
" />
</g>
<g style="fill:#840000; fill-opacity:0.0; 
stroke:#840000; stroke-width:100; stroke-opacity:1; 
stroke-linecap:round; stroke-linejoin:round;">
</g>
<g style="fill:#840000; fill-opacity:0.0; 
stroke:#840000; stroke-width:60; stroke-opacity:1; 
stroke-linecap:round; stroke-linejoin:round;">
<path d="M112990 43310
L112210 43310
" />
</g>
<g style="fill:#840000; fill-opacity:0.0; 
stroke:#840000; stroke-width:100; stroke-opacity:1; 
stroke-linecap:round; stroke-linejoin:round;">
</g>
<g style="fill:#840000; fill-opacity:0.0; 
stroke:#840000; stroke-width:60; stroke-opacity:1; 
stroke-linecap:round; stroke-linejoin:round;">
<path d="M112990 62990
L112210 62990
" />
</g>
<g style="fill:#840000; fill-opacity:0.0; 
stroke:#840000; stroke-width:100; stroke-opacity:1; 
stroke-linecap:round; stroke-linejoin:round;">
</g>
<g style="fill:#840000; fill-opacity:0.0; 
stroke:#840000; stroke-width:60; stroke-opacity:1; 
stroke-linecap:round; stroke-linejoin:round;">
<text x="112600" y="14030"
textLength="500" font-size="680" lengthAdjust="spacingAndGlyphs"
text-anchor="middle" opacity="0">A</text>
<path d="M112470 13860
L112720 13860
" />
<path d="M112430 14010
L112600 13500
L112770 14010
" />
</g>
<g style="fill:#840000; fill-opacity:0.0; 
stroke:#840000; stroke-width:100; stroke-opacity:1; 
stroke-linecap:round; stroke-linejoin:round;">
</g>
<g style="fill:#840000; fill-opacity:0.0; 
stroke:#840000; stroke-width:60; stroke-opacity:1; 
stroke-linecap:round; stroke-linejoin:round;">
<text x="112600" y="33710"
textLength="570" font-size="680" lengthAdjust="spacingAndGlyphs"
text-anchor="middle" opacity="0">B</text>
<path d="M112630 33420
L112700 33440
L112730 33470
L112750 33520
L112750 33590
L112730 33640
L112700 33660
L112660 33690
L112460 33690
L112460 33180
L112630 33180
L112680 33200
L112700 33220
L112730 33270
L112730 33320
L112700 33370
L112680 33390
L112630 33420
L112460 33420
" />
</g>
<g style="fill:#840000; fill-opacity:0.0; 
stroke:#840000; stroke-width:100; stroke-opacity:1; 
stroke-linecap:round; stroke-linejoin:round;">
</g>
<g style="fill:#840000; fill-opacity:0.0; 
stroke:#840000; stroke-width:60; stroke-opacity:1; 
stroke-linecap:round; stroke-linejoin:round;">
<text x="112600" y="53400"
textLength="570" font-size="680" lengthAdjust="spacingAndGlyphs"
text-anchor="middle" opacity="0">C</text>
<path d="M112750 53330
L112730 53350
L112660 53380
L112610 53380
L112530 53350
L112490 53300
L112460 53250
L112440 53160
L112440 53080
L112460 52990
L112490 52940
L112530 52890
L112610 52870
L112660 52870
L112730 52890
L112750 52910
" />
</g>
<g style="fill:#840000; fill-opacity:0.0; 
stroke:#840000; stroke-width:100; stroke-opacity:1; 
stroke-linecap:round; stroke-linejoin:round;">
</g>
<g style="fill:#840000; fill-opacity:0.0; 
stroke:#840000; stroke-width:60; stroke-opacity:1; 
stroke-linecap:round; stroke-linejoin:round;">
<text x="112600" y="73080"
textLength="570" font-size="680" lengthAdjust="spacingAndGlyphs"
text-anchor="middle" opacity="0">D</text>
<path d="M112460 73060
L112460 72550
L112580 72550
L112660 72570
L112700 72620
L112730 72670
L112750 72760
L112750 72840
L112730 72930
L112700 72980
L112660 73030
L112580 73060
L112460 73060
" />
</g>
<g style="fill:#840000; fill-opacity:0.0; 
stroke:#840000; stroke-width:100; stroke-opacity:1; 
stroke-linecap:round; stroke-linejoin:round;">
</g>
<g style="fill:#840000; fill-opacity:0.0; 
stroke:#840000; stroke-width:60; stroke-opacity:1; 
stroke-linecap:round; stroke-linejoin:round;">
<text x="78740" y="76320"
textLength="2760" font-size="780" lengthAdjust="spacingAndGlyphs"
text-anchor="start" opacity="0">Date: </text>
<path d="M78910 76290
L78910 75700
L79050 75700
L79130 75730
L79190 75790
L79210 75840
L79240 75950
L79240 76040
L79210 76150
L79190 76210
L79130 76260
L79050 76290
L78910 76290
" />
<path d="M79750 76290
L79750 75980
L79720 75930
L79660 75900
L79550 75900
L79500 75930
" />
<path d="M79750 76260
L79690 76290
L79550 76290
L79500 76260
L79470 76210
L79470 76150
L79500 76100
L79550 76070
L79690 76070
L79750 76040
" />
<path d="M79950 75900
L80170 75900
" />
<path d="M80030 75700
L80030 76210
L80060 76260
L80110 76290
L80170 76290
" />
<path d="M80590 76260
L80540 76290
L80420 76290
L80370 76260
L80340 76210
L80340 75980
L80370 75930
L80420 75900
L80540 75900
L80590 75930
L80620 75980
L80620 76040
L80340 76100
" />
<path d="M80870 76240
L80900 76260
L80870 76290
L80840 76260
L80870 76240
L80870 76290
" />
<path d="M80870 75930
L80900 75950
L80870 75980
L80840 75950
L80870 75930
L80870 75980
" />
</g>
<g style="fill:#840000; fill-opacity:0.0; 
stroke:#840000; stroke-width:100; stroke-opacity:1; 
stroke-linecap:round; stroke-linejoin:round;">
</g>
<g style="fill:#840000; fill-opacity:0.0; 
stroke:#840000; stroke-width:60; stroke-opacity:1; 
stroke-linecap:round; stroke-linejoin:round;">
<path d="M69690 76580
L112210 76580
" />
</g>
<g style="fill:#840000; fill-opacity:0.0; 
stroke:#840000; stroke-width:100; stroke-opacity:1; 
stroke-linecap:round; stroke-linejoin:round;">
</g>
<g style="fill:#840000; fill-opacity:0.0; 
stroke:#840000; stroke-width:60; stroke-opacity:1; 
stroke-linecap:round; stroke-linejoin:round;">
<text x="70080" y="77420"
textLength="13520" font-size="780" lengthAdjust="spacingAndGlyphs"
text-anchor="start" opacity="0">KiCad E.D.A.  kicad (5.1.8)-1</text>
<path d="M70250 77390
L70250 76800
" />
<path d="M70580 77390
L70330 77050
" />
<path d="M70580 76800
L70250 77140
" />
<path d="M70840 77390
L70840 77000
" />
<path d="M70840 76800
L70810 76830
L70840 76860
L70860 76830
L70840 76800
L70840 76860
" />
<path d="M71450 77340
L71430 77360
L71340 77390
L71290 77390
L71200 77360
L71140 77310
L71120 77250
L71090 77140
L71090 77050
L71120 76940
L71140 76890
L71200 76830
L71290 76800
L71340 76800
L71430 76830
L71450 76860
" />
<path d="M71960 77390
L71960 77080
L71930 77030
L71880 77000
L71760 77000
L71710 77030
" />
<path d="M71960 77360
L71900 77390
L71760 77390
L71710 77360
L71680 77310
L71680 77250
L71710 77200
L71760 77170
L71900 77170
L71960 77140
" />
<path d="M72490 77390
L72490 76800
" />
<path d="M72490 77360
L72440 77390
L72320 77390
L72270 77360
L72240 77340
L72210 77280
L72210 77110
L72240 77050
L72270 77030
L72320 77000
L72440 77000
L72490 77030
" />
<path d="M73220 77080
L73420 77080
" />
<path d="M73500 77390
L73220 77390
L73220 76800
L73500 76800
" />
<path d="M73760 77340
L73790 77360
L73760 77390
L73730 77360
L73760 77340
L73760 77390
" />
<path d="M74040 77390
L74040 76800
L74180 76800
L74260 76830
L74320 76890
L74350 76940
L74380 77050
L74380 77140
L74350 77250
L74320 77310
L74260 77360
L74180 77390
L74040 77390
" />
<path d="M74630 77340
L74660 77360
L74630 77390
L74600 77360
L74630 77340
L74630 77390
" />
<path d="M74880 77220
L75160 77220
" />
<path d="M74830 77390
L75020 76800
L75220 77390
" />
<path d="M75420 77340
L75440 77360
L75420 77390
L75390 77360
L75420 77340
L75420 77390
" />
<path d="M76600 77390
L76600 76800
" />
<path d="M76650 77170
L76820 77390
" />
<path d="M76820 77000
L76600 77220
" />
<path d="M77070 77390
L77070 77000
" />
<path d="M77070 76800
L77040 76830
L77070 76860
L77100 76830
L77070 76800
L77070 76860
" />
<path d="M77610 77360
L77550 77390
L77440 77390
L77380 77360
L77350 77340
L77330 77280
L77330 77110
L77350 77050
L77380 77030
L77440 77000
L77550 77000
L77610 77030
" />
<path d="M78110 77390
L78110 77080
L78080 77030
L78030 77000
L77920 77000
L77860 77030
" />
<path d="M78110 77360
L78060 77390
L77920 77390
L77860 77360
L77830 77310
L77830 77250
L77860 77200
L77920 77170
L78060 77170
L78110 77140
" />
<path d="M78650 77390
L78650 76800
" />
<path d="M78650 77360
L78590 77390
L78480 77390
L78420 77360
L78390 77340
L78370 77280
L78370 77110
L78390 77050
L78420 77030
L78480 77000
L78590 77000
L78650 77030
" />
<path d="M79550 77620
L79520 77590
L79460 77500
L79430 77450
L79400 77360
L79380 77220
L79380 77110
L79400 76970
L79430 76890
L79460 76830
L79520 76750
L79550 76720
" />
<path d="M80050 76800
L79770 76800
L79740 77080
L79770 77050
L79830 77030
L79970 77030
L80020 77050
L80050 77080
L80080 77140
L80080 77280
L80050 77340
L80020 77360
L79970 77390
L79830 77390
L79770 77360
L79740 77340
" />
<path d="M80330 77340
L80360 77360
L80330 77390
L80300 77360
L80330 77340
L80330 77390
" />
<path d="M80920 77390
L80580 77390
" />
<path d="M80750 77390
L80750 76800
L80700 76890
L80640 76940
L80580 76970
" />
<path d="M81170 77340
L81200 77360
L81170 77390
L81150 77360
L81170 77340
L81170 77390
" />
<path d="M81540 77050
L81480 77030
L81460 77000
L81430 76940
L81430 76910
L81460 76860
L81480 76830
L81540 76800
L81650 76800
L81710 76830
L81740 76860
L81760 76910
L81760 76940
L81740 77000
L81710 77030
L81650 77050
L81540 77050
L81480 77080
L81460 77110
L81430 77170
L81430 77280
L81460 77340
L81480 77360
L81540 77390
L81650 77390
L81710 77360
L81740 77340
L81760 77280
L81760 77170
L81740 77110
L81710 77080
L81650 77050
" />
<path d="M81960 77620
L81990 77590
L82050 77500
L82070 77450
L82100 77360
L82130 77220
L82130 77110
L82100 76970
L82070 76890
L82050 76830
L81990 76750
L81960 76720
" />
<path d="M82410 77170
L82860 77170
" />
<path d="M83450 77390
L83110 77390
" />
<path d="M83280 77390
L83280 76800
L83230 76890
L83170 76940
L83110 76970
" />
</g>
<g style="fill:#840000; fill-opacity:0.0; 
stroke:#840000; stroke-width:100; stroke-opacity:1; 
stroke-linecap:round; stroke-linejoin:round;">
</g>
<g style="fill:#840000; fill-opacity:0.0; 
stroke:#840000; stroke-width:60; stroke-opacity:1; 
stroke-linecap:round; stroke-linejoin:round;">
<path d="M69690 75400
L112210 75400
" />
</g>
<g style="fill:#840000; fill-opacity:0.0; 
stroke:#840000; stroke-width:100; stroke-opacity:1; 
stroke-linecap:round; stroke-linejoin:round;">
</g>
<g style="fill:#840000; fill-opacity:0.0; 
stroke:#840000; stroke-width:120; stroke-opacity:1; 
stroke-linecap:round; stroke-linejoin:round;">
<text x="103540" y="76320"
textLength="2340" font-size="780" lengthAdjust="spacingAndGlyphs"
text-anchor="start" opacity="0">Rev: </text>
<path d="M104090 76290
L103890 76010
" />
<path d="M103750 76290
L103750 75700
L103980 75700
L104030 75730
L104060 75760
L104090 75810
L104090 75900
L104060 75950
L104030 75980
L103980 76010
L103750 76010
" />
<path d="M104570 76260
L104510 76290
L104400 76290
L104340 76260
L104320 76210
L104320 75980
L104340 75930
L104400 75900
L104510 75900
L104570 75930
L104600 75980
L104600 76040
L104320 76100
" />
<path d="M104790 75900
L104930 76290
L105070 75900
" />
<path d="M105300 76240
L105330 76260
L105300 76290
L105270 76260
L105300 76240
L105300 76290
" />
<path d="M105300 75930
L105330 75950
L105300 75980
L105270 75950
L105300 75930
L105300 75980
" />
</g>
<g style="fill:#840000; fill-opacity:0.0; 
stroke:#840000; stroke-width:100; stroke-opacity:1; 
stroke-linecap:round; stroke-linejoin:round;">
</g>
<g style="fill:#840000; fill-opacity:0.0; 
stroke:#840000; stroke-width:60; stroke-opacity:1; 
stroke-linecap:round; stroke-linejoin:round;">
<text x="70080" y="76320"
textLength="3780" font-size="780" lengthAdjust="spacingAndGlyphs"
text-anchor="start" opacity="0">Size: A4</text>
<path d="M70220 76260
L70300 76290
L70440 76290
L70500 76260
L70530 76240
L70550 76180
L70550 76120
L70530 76070
L70500 76040
L70440 76010
L70330 75980
L70270 75950
L70250 75930
L70220 75870
L70220 75810
L70250 75760
L70270 75730
L70330 75700
L70470 75700
L70550 75730
" />
<path d="M70810 76290
L70810 75900
" />
<path d="M70810 75700
L70780 75730
L70810 75760
L70840 75730
L70810 75700
L70810 75760
" />
<path d="M71030 75900
L71340 75900
L71030 76290
L71340 76290
" />
<path d="M71790 76260
L71730 76290
L71620 76290
L71570 76260
L71540 76210
L71540 75980
L71570 75930
L71620 75900
L71730 75900
L71790 75930
L71820 75980
L71820 76040
L71540 76100
" />
<path d="M72070 76240
L72100 76260
L72070 76290
L72040 76260
L72070 76240
L72070 76290
" />
<path d="M72070 75930
L72100 75950
L72070 75980
L72040 75950
L72070 75930
L72070 75980
" />
<path d="M72770 76120
L73060 76120
" />
<path d="M72720 76290
L72910 75700
L73110 76290
" />
<path d="M73560 75900
L73560 76290
" />
<path d="M73420 75670
L73280 76100
L73650 76100
" />
</g>
<g style="fill:#840000; fill-opacity:0.0; 
stroke:#840000; stroke-width:100; stroke-opacity:1; 
stroke-linecap:round; stroke-linejoin:round;">
</g>
<g style="fill:#840000; fill-opacity:0.0; 
stroke:#840000; stroke-width:60; stroke-opacity:1; 
stroke-linecap:round; stroke-linejoin:round;">
<text x="103540" y="77420"
textLength="3350" font-size="780" lengthAdjust="spacingAndGlyphs"
text-anchor="start" opacity="0">Id: 3/8</text>
<path d="M103710 77390
L103710 76800
" />
<path d="M104240 77390
L104240 76800
" />
<path d="M104240 77360
L104180 77390
L104070 77390
L104010 77360
L103990 77340
L103960 77280
L103960 77110
L103990 77050
L104010 77030
L104070 77000
L104180 77000
L104240 77030
" />
<path d="M104520 77340
L104550 77360
L104520 77390
L104490 77360
L104520 77340
L104520 77390
" />
<path d="M104520 77030
L104550 77050
L104520 77080
L104490 77050
L104520 77030
L104520 77080
" />
<path d="M105190 76800
L105560 76800
L105360 77030
L105450 77030
L105500 77050
L105530 77080
L105560 77140
L105560 77280
L105530 77340
L105500 77360
L105450 77390
L105280 77390
L105220 77360
L105190 77340
" />
<path d="M106230 76770
L105730 77530
" />
<path d="M106520 77050
L106460 77030
L106430 77000
L106400 76940
L106400 76910
L106430 76860
L106460 76830
L106520 76800
L106630 76800
L106680 76830
L106710 76860
L106740 76910
L106740 76940
L106710 77000
L106680 77030
L106630 77050
L106520 77050
L106460 77080
L106430 77110
L106400 77170
L106400 77280
L106430 77340
L106460 77360
L106520 77390
L106630 77390
L106680 77360
L106710 77340
L106740 77280
L106740 77170
L106710 77110
L106680 77080
L106630 77050
" />
</g>
<g style="fill:#840000; fill-opacity:0.0; 
stroke:#840000; stroke-width:100; stroke-opacity:1; 
stroke-linecap:round; stroke-linejoin:round;">
</g>
<g style="fill:#840000; fill-opacity:0.0; 
stroke:#840000; stroke-width:60; stroke-opacity:1; 
stroke-linecap:round; stroke-linejoin:round;">
<path d="M69690 73820
L112210 73820
" />
</g>
<g style="fill:#840000; fill-opacity:0.0; 
stroke:#840000; stroke-width:100; stroke-opacity:1; 
stroke-linecap:round; stroke-linejoin:round;">
</g>
<g style="fill:#840000; fill-opacity:0.0; 
stroke:#840000; stroke-width:160; stroke-opacity:1; 
stroke-linecap:round; stroke-linejoin:round;">
<text x="70080" y="74920"
textLength="3710" font-size="1050" lengthAdjust="spacingAndGlyphs"
text-anchor="start" opacity="0">Title: </text>
<path d="M70360 74090
L70810 74090
" />
<path d="M70480 74880
L70580 74090
" />
<path d="M70970 74880
L71040 74360
" />
<path d="M71070 74090
L71030 74130
L71060 74170
L71110 74130
L71070 74090
L71060 74170
" />
<path d="M71300 74360
L71600 74360
" />
<path d="M71450 74090
L71360 74770
L71390 74840
L71460 74880
L71540 74880
" />
<path d="M71910 74880
L71840 74840
L71820 74770
L71900 74090
" />
<path d="M72520 74840
L72440 74880
L72290 74880
L72220 74840
L72190 74770
L72230 74470
L72280 74390
L72360 74360
L72510 74360
L72580 74390
L72610 74470
L72600 74540
L72210 74620
" />
<path d="M72900 74810
L72930 74840
L72890 74880
L72860 74840
L72900 74810
L72890 74880
" />
<path d="M72950 74390
L72990 74430
L72940 74470
L72910 74430
L72950 74390
L72940 74470
" />
</g>
<g style="fill:#840000; fill-opacity:0.0; 
stroke:#840000; stroke-width:100; stroke-opacity:1; 
stroke-linecap:round; stroke-linejoin:round;">
</g>
<g style="fill:#840000; fill-opacity:0.0; 
stroke:#840000; stroke-width:60; stroke-opacity:1; 
stroke-linecap:round; stroke-linejoin:round;">
<text x="70080" y="73400"
textLength="14090" font-size="780" lengthAdjust="spacingAndGlyphs"
text-anchor="start" opacity="0">File: Pi-Output-Protection.sch</text>
<path d="M70440 73060
L70250 73060
" />
<path d="M70250 73370
L70250 72780
L70530 72780
" />
<path d="M70750 73370
L70750 72980
" />
<path d="M70750 72780
L70720 72810
L70750 72840
L70780 72810
L70750 72780
L70750 72840
" />
<path d="M71120 73370
L71060 73340
L71030 73290
L71030 72780
" />
<path d="M71570 73340
L71510 73370
L71400 73370
L71340 73340
L71310 73290
L71310 73060
L71340 73010
L71400 72980
L71510 72980
L71570 73010
L71590 73060
L71590 73120
L71310 73180
" />
<path d="M71850 73320
L71880 73340
L71850 73370
L71820 73340
L71850 73320
L71850 73370
" />
<path d="M71850 73010
L71880 73030
L71850 73060
L71820 73030
L71850 73010
L71850 73060
" />
<path d="M72580 73370
L72580 72780
L72800 72780
L72860 72810
L72890 72840
L72910 72890
L72910 72980
L72890 73030
L72860 73060
L72800 73090
L72580 73090
" />
<path d="M73170 73370
L73170 72980
" />
<path d="M73170 72780
L73140 72810
L73170 72840
L73200 72810
L73170 72780
L73170 72840
" />
<path d="M73450 73150
L73900 73150
" />
<path d="M74290 72780
L74400 72780
L74460 72810
L74520 72870
L74540 72980
L74540 73180
L74520 73290
L74460 73340
L74400 73370
L74290 73370
L74240 73340
L74180 73290
L74150 73180
L74150 72980
L74180 72870
L74240 72810
L74290 72780
" />
<path d="M75050 72980
L75050 73370
" />
<path d="M74800 72980
L74800 73290
L74830 73340
L74880 73370
L74970 73370
L75020 73340
L75050 73320
" />
<path d="M75250 72980
L75470 72980
" />
<path d="M75330 72780
L75330 73290
L75360 73340
L75420 73370
L75470 73370
" />
<path d="M75670 72980
L75670 73570
" />
<path d="M75670 73010
L75720 72980
L75840 72980
L75890 73010
L75920 73030
L75950 73090
L75950 73260
L75920 73320
L75890 73340
L75840 73370
L75720 73370
L75670 73340
" />
<path d="M76450 72980
L76450 73370
" />
<path d="M76200 72980
L76200 73290
L76230 73340
L76290 73370
L76370 73370
L76430 73340
L76450 73320
" />
<path d="M76650 72980
L76880 72980
" />
<path d="M76740 72780
L76740 73290
L76760 73340
L76820 73370
L76880 73370
" />
<path d="M77070 73150
L77520 73150
" />
<path d="M77800 73370
L77800 72780
L78030 72780
L78080 72810
L78110 72840
L78140 72890
L78140 72980
L78110 73030
L78080 73060
L78030 73090
L77800 73090
" />
<path d="M78390 73370
L78390 72980
" />
<path d="M78390 73090
L78420 73030
L78450 73010
L78510 72980
L78560 72980
" />
<path d="M78840 73370
L78790 73340
L78760 73320
L78730 73260
L78730 73090
L78760 73030
L78790 73010
L78840 72980
L78930 72980
L78980 73010
L79010 73030
L79040 73090
L79040 73260
L79010 73320
L78980 73340
L78930 73370
L78840 73370
" />
<path d="M79210 72980
L79430 72980
" />
<path d="M79290 72780
L79290 73290
L79320 73340
L79380 73370
L79430 73370
" />
<path d="M79850 73340
L79800 73370
L79690 73370
L79630 73340
L79600 73290
L79600 73060
L79630 73010
L79690 72980
L79800 72980
L79850 73010
L79880 73060
L79880 73120
L79600 73180
" />
<path d="M80390 73340
L80330 73370
L80220 73370
L80160 73340
L80140 73320
L80110 73260
L80110 73090
L80140 73030
L80160 73010
L80220 72980
L80330 72980
L80390 73010
" />
<path d="M80560 72980
L80780 72980
" />
<path d="M80640 72780
L80640 73290
L80670 73340
L80730 73370
L80780 73370
" />
<path d="M80980 73370
L80980 72980
" />
<path d="M80980 72780
L80950 72810
L80980 72840
L81010 72810
L80980 72780
L80980 72840
" />
<path d="M81340 73370
L81290 73340
L81260 73320
L81230 73260
L81230 73090
L81260 73030
L81290 73010
L81340 72980
L81430 72980
L81480 73010
L81510 73030
L81540 73090
L81540 73260
L81510 73320
L81480 73340
L81430 73370
L81340 73370
" />
<path d="M81790 72980
L81790 73370
" />
<path d="M81790 73030
L81820 73010
L81880 72980
L81960 72980
L82020 73010
L82050 73060
L82050 73370
" />
<path d="M82330 73320
L82350 73340
L82330 73370
L82300 73340
L82330 73320
L82330 73370
" />
<path d="M82580 73340
L82640 73370
L82750 73370
L82800 73340
L82830 73290
L82830 73260
L82800 73200
L82750 73180
L82660 73180
L82610 73150
L82580 73090
L82580 73060
L82610 73010
L82660 72980
L82750 72980
L82800 73010
" />
<path d="M83340 73340
L83280 73370
L83170 73370
L83110 73340
L83090 73320
L83060 73260
L83060 73090
L83090 73030
L83110 73010
L83170 72980
L83280 72980
L83340 73010
" />
<path d="M83590 73370
L83590 72780
" />
<path d="M83840 73370
L83840 73060
L83820 73010
L83760 72980
L83680 72980
L83620 73010
L83590 73030
" />
</g>
<g style="fill:#840000; fill-opacity:0.0; 
stroke:#840000; stroke-width:100; stroke-opacity:1; 
stroke-linecap:round; stroke-linejoin:round;">
</g>
<g style="fill:#840000; fill-opacity:0.0; 
stroke:#840000; stroke-width:60; stroke-opacity:1; 
stroke-linecap:round; stroke-linejoin:round;">
<path d="M69690 71460
L112210 71460
" />
</g>
<g style="fill:#840000; fill-opacity:0.0; 
stroke:#840000; stroke-width:100; stroke-opacity:1; 
stroke-linecap:round; stroke-linejoin:round;">
</g>
<g style="fill:#840000; fill-opacity:0.0; 
stroke:#840000; stroke-width:60; stroke-opacity:1; 
stroke-linecap:round; stroke-linejoin:round;">
<text x="70080" y="72340"
textLength="14220" font-size="780" lengthAdjust="spacingAndGlyphs"
text-anchor="start" opacity="0">Sheet: /Pi-Output-Protection/</text>
<path d="M70220 72280
L70300 72310
L70440 72310
L70500 72280
L70530 72260
L70550 72200
L70550 72140
L70530 72090
L70500 72060
L70440 72030
L70330 72000
L70270 71970
L70250 71950
L70220 71890
L70220 71830
L70250 71780
L70270 71750
L70330 71720
L70470 71720
L70550 71750
" />
<path d="M70810 72310
L70810 71720
" />
<path d="M71060 72310
L71060 72000
L71030 71950
L70980 71920
L70890 71920
L70840 71950
L70810 71970
" />
<path d="M71570 72280
L71510 72310
L71400 72310
L71340 72280
L71310 72230
L71310 72000
L71340 71950
L71400 71920
L71510 71920
L71570 71950
L71590 72000
L71590 72060
L71310 72120
" />
<path d="M72070 72280
L72020 72310
L71900 72310
L71850 72280
L71820 72230
L71820 72000
L71850 71950
L71900 71920
L72020 71920
L72070 71950
L72100 72000
L72100 72060
L71820 72120
" />
<path d="M72270 71920
L72490 71920
" />
<path d="M72350 71720
L72350 72230
L72380 72280
L72440 72310
L72490 72310
" />
<path d="M72690 72260
L72720 72280
L72690 72310
L72660 72280
L72690 72260
L72690 72310
" />
<path d="M72690 71950
L72720 71970
L72690 72000
L72660 71970
L72690 71950
L72690 72000
" />
<path d="M73840 71690
L73340 72450
" />
<path d="M74040 72310
L74040 71720
L74260 71720
L74320 71750
L74350 71780
L74380 71830
L74380 71920
L74350 71970
L74320 72000
L74260 72030
L74040 72030
" />
<path d="M74630 72310
L74630 71920
" />
<path d="M74630 71720
L74600 71750
L74630 71780
L74660 71750
L74630 71720
L74630 71780
" />
<path d="M74910 72090
L75360 72090
" />
<path d="M75750 71720
L75860 71720
L75920 71750
L75980 71810
L76010 71920
L76010 72120
L75980 72230
L75920 72280
L75860 72310
L75750 72310
L75700 72280
L75640 72230
L75610 72120
L75610 71920
L75640 71810
L75700 71750
L75750 71720
" />
<path d="M76510 71920
L76510 72310
" />
<path d="M76260 71920
L76260 72230
L76290 72280
L76340 72310
L76430 72310
L76480 72280
L76510 72260
" />
<path d="M76710 71920
L76930 71920
" />
<path d="M76790 71720
L76790 72230
L76820 72280
L76880 72310
L76930 72310
" />
<path d="M77130 71920
L77130 72510
" />
<path d="M77130 71950
L77190 71920
L77300 71920
L77350 71950
L77380 71970
L77410 72030
L77410 72200
L77380 72260
L77350 72280
L77300 72310
L77190 72310
L77130 72280
" />
<path d="M77920 71920
L77920 72310
" />
<path d="M77660 71920
L77660 72230
L77690 72280
L77750 72310
L77830 72310
L77890 72280
L77920 72260
" />
<path d="M78110 71920
L78340 71920
" />
<path d="M78200 71720
L78200 72230
L78220 72280
L78280 72310
L78340 72310
" />
<path d="M78530 72090
L78980 72090
" />
<path d="M79260 72310
L79260 71720
L79490 71720
L79550 71750
L79570 71780
L79600 71830
L79600 71920
L79570 71970
L79550 72000
L79490 72030
L79260 72030
" />
<path d="M79850 72310
L79850 71920
" />
<path d="M79850 72030
L79880 71970
L79910 71950
L79970 71920
L80020 71920
" />
<path d="M80300 72310
L80250 72280
L80220 72260
L80190 72200
L80190 72030
L80220 71970
L80250 71950
L80300 71920
L80390 71920
L80440 71950
L80470 71970
L80500 72030
L80500 72200
L80470 72260
L80440 72280
L80390 72310
L80300 72310
" />
<path d="M80670 71920
L80890 71920
" />
<path d="M80750 71720
L80750 72230
L80780 72280
L80840 72310
L80890 72310
" />
<path d="M81320 72280
L81260 72310
L81150 72310
L81090 72280
L81060 72230
L81060 72000
L81090 71950
L81150 71920
L81260 71920
L81320 71950
L81340 72000
L81340 72060
L81060 72120
" />
<path d="M81850 72280
L81790 72310
L81680 72310
L81620 72280
L81600 72260
L81570 72200
L81570 72030
L81600 71970
L81620 71950
L81680 71920
L81790 71920
L81850 71950
" />
<path d="M82020 71920
L82240 71920
" />
<path d="M82100 71720
L82100 72230
L82130 72280
L82190 72310
L82240 72310
" />
<path d="M82440 72310
L82440 71920
" />
<path d="M82440 71720
L82410 71750
L82440 71780
L82470 71750
L82440 71720
L82440 71780
" />
<path d="M82800 72310
L82750 72280
L82720 72260
L82690 72200
L82690 72030
L82720 71970
L82750 71950
L82800 71920
L82890 71920
L82940 71950
L82970 71970
L83000 72030
L83000 72200
L82970 72260
L82940 72280
L82890 72310
L82800 72310
" />
<path d="M83250 71920
L83250 72310
" />
<path d="M83250 71970
L83280 71950
L83340 71920
L83420 71920
L83480 71950
L83510 72000
L83510 72310
" />
<path d="M84210 71690
L83700 72450
" />
</g>
<g style="fill:#840000; fill-opacity:0.0; 
stroke:#840000; stroke-width:100; stroke-opacity:1; 
stroke-linecap:round; stroke-linejoin:round;">
</g>
<g style="fill:#840000; fill-opacity:0.0; 
stroke:#840000; stroke-width:60; stroke-opacity:1; 
stroke-linecap:round; stroke-linejoin:round;">
<path d="M77560 75400
L77560 76580
" />
</g>
<g style="fill:#840000; fill-opacity:0.0; 
stroke:#840000; stroke-width:100; stroke-opacity:1; 
stroke-linecap:round; stroke-linejoin:round;">
</g>
<g style="fill:#840000; fill-opacity:0.0; 
stroke:#840000; stroke-width:60; stroke-opacity:1; 
stroke-linecap:round; stroke-linejoin:round;">
<path d="M102760 75400
L102760 77960
" />
</g>
<g style="fill:#840000; fill-opacity:0.0; 
stroke:#840000; stroke-width:0; stroke-opacity:1; 
stroke-linecap:round; stroke-linejoin:round;">
<g >
</g>
<g style="fill:#840000; fill-opacity:0.0; 
stroke:#840000; stroke-width:60; stroke-opacity:1; 
stroke-linecap:round; stroke-linejoin:round;">
<circle cx="62800" cy="37500" r="300" /> 
<path d="M62500 37500
L61500 37500
" />
</g>
<g style="fill:#008484; fill-opacity:0.0; 
stroke:#008484; stroke-width:60; stroke-opacity:1; 
stroke-linecap:round; stroke-linejoin:round;">
<text x="64090" y="37770"
textLength="1420" font-size="660" lengthAdjust="spacingAndGlyphs"
text-anchor="middle" opacity="0">TP4</text>
<path d="M63450 37240
L63740 37240
" />
<path d="M63600 37740
L63600 37240
" />
<path d="M63910 37740
L63910 37240
L64100 37240
L64140 37270
L64170 37290
L64190 37340
L64190 37410
L64170 37460
L64140 37480
L64100 37500
L63910 37500
" />
<path d="M64620 37410
L64620 37740
" />
<path d="M64500 37220
L64380 37570
L64690 37570
" />
</g>
</g>
<g style="fill:#008484; fill-opacity:0.0; 
stroke:#008484; stroke-width:0; stroke-opacity:1; 
stroke-linecap:round; stroke-linejoin:round;">
<g >
</g>
<g style="fill:#840000; fill-opacity:0.0; 
stroke:#840000; stroke-width:0; stroke-opacity:1; 
stroke-linecap:round; stroke-linejoin:round;">
</g>
<g style="fill:#840000; fill-opacity:0.0; 
stroke:#840000; stroke-width:60; stroke-opacity:1; 
stroke-linecap:round; stroke-linejoin:round;">
<path style="fill:#840000; fill-opacity:0.0; 
stroke:#840000; stroke-width:60; stroke-opacity:1; 
stroke-linecap:round; stroke-linejoin:round;fill:none"
d="M 55000,43000
55000,43500
55500,43500
55000,44000
54500,43500
55000,43500
" /> 
</g>
<g style="fill:#008484; fill-opacity:0.0; 
stroke:#008484; stroke-width:60; stroke-opacity:1; 
stroke-linecap:round; stroke-linejoin:round;">
<text x="55050" y="45000"
textLength="1580" font-size="660" lengthAdjust="spacingAndGlyphs"
text-anchor="middle" opacity="0">GND</text>
<path d="M54660 44500
L54620 44470
L54550 44470
L54470 44500
L54430 44540
L54400 44590
L54380 44690
L54380 44760
L54400 44850
L54430 44900
L54470 44950
L54550 44970
L54590 44970
L54660 44950
L54690 44920
L54690 44760
L54590 44760
" />
<path d="M54900 44970
L54900 44470
L55190 44970
L55190 44470
" />
<path d="M55430 44970
L55430 44470
L55550 44470
L55620 44500
L55660 44540
L55690 44590
L55710 44690
L55710 44760
L55690 44850
L55660 44900
L55620 44950
L55550 44970
L55430 44970
" />
</g>
</g>
<g style="fill:#008484; fill-opacity:0.0; 
stroke:#008484; stroke-width:0; stroke-opacity:1; 
stroke-linecap:round; stroke-linejoin:round;">
<g >
</g>
<g style="fill:#840000; fill-opacity:0.0; 
stroke:#840000; stroke-width:0; stroke-opacity:1; 
stroke-linecap:round; stroke-linejoin:round;">
</g>
<g style="fill:#FFFFC2; fill-opacity:0.0; 
stroke:#FFFFC2; stroke-width:0; stroke-opacity:1; 
stroke-linecap:round; stroke-linejoin:round;">
</g>
<g style="fill:#FFFFC2; fill-opacity:0.6; 
stroke:#FFFFC2; stroke-width:0; stroke-opacity:1; 
stroke-linecap:round; stroke-linejoin:round;">
<rect x="52500" y="33500" width="5000" height="8000" rx="0" />
</g>
<g style="fill:#840000; fill-opacity:0.6; 
stroke:#840000; stroke-width:0; stroke-opacity:1; 
stroke-linecap:round; stroke-linejoin:round;">
</g>
<g style="fill:#840000; fill-opacity:0.0; 
stroke:#840000; stroke-width:60; stroke-opacity:1; 
stroke-linecap:round; stroke-linejoin:round;">
<rect x="52500" y="33500" width="5000" height="8000" rx="0" />
<rect x="52500" y="33500" width="5000" height="8000" rx="0" />
<path d="M57500 34500
L58500 34500
" />
</g>
<g style="fill:#008484; fill-opacity:0.0; 
stroke:#008484; stroke-width:60; stroke-opacity:1; 
stroke-linecap:round; stroke-linejoin:round;">
<text x="57100" y="34750"
textLength="1490" font-size="660" lengthAdjust="spacingAndGlyphs"
text-anchor="end" opacity="0">OUT</text>
<path d="M55850 34220
L55950 34220
L55990 34250
L56040 34290
L56070 34390
L56070 34550
L56040 34650
L55990 34700
L55950 34720
L55850 34720
L55800 34700
L55760 34650
L55730 34550
L55730 34390
L55760 34290
L55800 34250
L55850 34220
" />
<path d="M56280 34220
L56280 34630
L56300 34670
L56330 34700
L56370 34720
L56470 34720
L56520 34700
L56540 34670
L56570 34630
L56570 34220
" />
<path d="M56730 34220
L57020 34220
" />
<path d="M56870 34720
L56870 34220
" />
</g>
<g style="fill:#840000; fill-opacity:0.0; 
stroke:#840000; stroke-width:60; stroke-opacity:1; 
stroke-linecap:round; stroke-linejoin:round;">
<text x="58000" y="34400"
textLength="540" font-size="660" lengthAdjust="spacingAndGlyphs"
text-anchor="middle" opacity="0">1</text>
<path d="M58140 34370
L57850 34370
" />
<path d="M58000 34370
L58000 33870
L57950 33940
L57900 33990
L57850 34010
" />
<path d="M57500 37500
L58500 37500
" />
</g>
<g style="fill:#008484; fill-opacity:0.0; 
stroke:#008484; stroke-width:60; stroke-opacity:1; 
stroke-linecap:round; stroke-linejoin:round;">
<text x="57100" y="37750"
textLength="1510" font-size="660" lengthAdjust="spacingAndGlyphs"
text-anchor="end" opacity="0">ILIM</text>
<path d="M55730 37720
L55730 37220
" />
<path d="M56210 37720
L55970 37720
L55970 37220
" />
<path d="M56370 37720
L56370 37220
" />
<path d="M56610 37720
L56610 37220
L56780 37580
L56950 37220
L56950 37720
" />
</g>
<g style="fill:#840000; fill-opacity:0.0; 
stroke:#840000; stroke-width:60; stroke-opacity:1; 
stroke-linecap:round; stroke-linejoin:round;">
<text x="58000" y="37400"
textLength="540" font-size="660" lengthAdjust="spacingAndGlyphs"
text-anchor="middle" opacity="0">2</text>
<path d="M57850 36920
L57880 36900
L57920 36870
L58040 36870
L58090 36900
L58110 36920
L58140 36970
L58140 37010
L58110 37090
L57830 37370
L58140 37370
" />
<path d="M52500 37500
L51500 37500
" />
</g>
<g style="fill:#008484; fill-opacity:0.0; 
stroke:#008484; stroke-width:60; stroke-opacity:1; 
stroke-linecap:round; stroke-linejoin:round;">
<text x="52900" y="37750"
textLength="1820" font-size="660" lengthAdjust="spacingAndGlyphs"
text-anchor="start" opacity="0">~FLAG</text>
<path d="M52930 37080
L53350 37080
" />
<path d="M53210 37460
L53040 37460
" />
<path d="M53040 37720
L53040 37220
L53280 37220
" />
<path d="M53350 37080
L53760 37080
" />
<path d="M53710 37720
L53470 37720
L53470 37220
" />
<path d="M53760 37080
L54190 37080
" />
<path d="M53850 37580
L54090 37580
" />
<path d="M53810 37720
L53970 37220
L54140 37720
" />
<path d="M54190 37080
L54690 37080
" />
<path d="M54570 37250
L54520 37220
L54450 37220
L54380 37250
L54330 37290
L54310 37340
L54280 37440
L54280 37510
L54310 37600
L54330 37650
L54380 37700
L54450 37720
L54500 37720
L54570 37700
L54590 37670
L54590 37510
L54500 37510
" />
</g>
<g style="fill:#840000; fill-opacity:0.0; 
stroke:#840000; stroke-width:60; stroke-opacity:1; 
stroke-linecap:round; stroke-linejoin:round;">
<text x="52000" y="37400"
textLength="540" font-size="660" lengthAdjust="spacingAndGlyphs"
text-anchor="middle" opacity="0">3</text>
<path d="M51830 36870
L52140 36870
L51970 37060
L52040 37060
L52090 37090
L52110 37110
L52140 37160
L52140 37280
L52110 37320
L52090 37350
L52040 37370
L51900 37370
L51850 37350
L51830 37320
" />
<path d="M52500 38500
L51500 38500
" />
</g>
<g style="fill:#008484; fill-opacity:0.0; 
stroke:#008484; stroke-width:60; stroke-opacity:1; 
stroke-linecap:round; stroke-linejoin:round;">
<text x="52900" y="38750"
textLength="1040" font-size="660" lengthAdjust="spacingAndGlyphs"
text-anchor="start" opacity="0">~EN</text>
<path d="M52930 38080
L53380 38080
" />
<path d="M53040 38460
L53210 38460
" />
<path d="M53280 38720
L53040 38720
L53040 38220
L53280 38220
" />
<path d="M53380 38080
L53900 38080
" />
<path d="M53500 38720
L53500 38220
L53780 38720
L53780 38220
" />
</g>
<g style="fill:#840000; fill-opacity:0.0; 
stroke:#840000; stroke-width:60; stroke-opacity:1; 
stroke-linecap:round; stroke-linejoin:round;">
<text x="52000" y="38400"
textLength="540" font-size="660" lengthAdjust="spacingAndGlyphs"
text-anchor="middle" opacity="0">4</text>
<path d="M52090 38040
L52090 38370
" />
<path d="M51970 37850
L51850 38200
L52160 38200
" />
<path d="M55000 41500
L55000 42500
" />
</g>
<g style="fill:#008484; fill-opacity:0.0; 
stroke:#008484; stroke-width:60; stroke-opacity:1; 
stroke-linecap:round; stroke-linejoin:round;">
<g transform="rotate(-90 55000 41100)">
<text x="55000" y="41350"
textLength="1580" font-size="660" lengthAdjust="spacingAndGlyphs"
text-anchor="start" opacity="0">GND</text>
</g>
<path d="M54750 40680
L54720 40730
L54720 40800
L54750 40870
L54790 40920
L54840 40950
L54940 40970
L55010 40970
L55100 40950
L55150 40920
L55200 40870
L55220 40800
L55220 40760
L55200 40680
L55170 40660
L55010 40660
L55010 40760
" />
<path d="M55220 40450
L54720 40450
L55220 40160
L54720 40160
" />
<path d="M55220 39920
L54720 39920
L54720 39800
L54750 39730
L54790 39680
L54840 39660
L54940 39640
L55010 39640
L55100 39660
L55150 39680
L55200 39730
L55220 39800
L55220 39920
" />
</g>
<g style="fill:#840000; fill-opacity:0.0; 
stroke:#840000; stroke-width:60; stroke-opacity:1; 
stroke-linecap:round; stroke-linejoin:round;">
<g transform="rotate(-90 54900 42000)">
<text x="54900" y="42000"
textLength="540" font-size="660" lengthAdjust="spacingAndGlyphs"
text-anchor="middle" opacity="0">5</text>
</g>
<path d="M54370 41880
L54370 42110
L54610 42140
L54590 42110
L54560 42070
L54560 41950
L54590 41900
L54610 41880
L54660 41850
L54780 41850
L54820 41880
L54850 41900
L54870 41950
L54870 42070
L54850 42110
L54820 42140
" />
<path d="M52500 34500
L51500 34500
" />
</g>
<g style="fill:#008484; fill-opacity:0.0; 
stroke:#008484; stroke-width:60; stroke-opacity:1; 
stroke-linecap:round; stroke-linejoin:round;">
<text x="52900" y="34750"
textLength="820" font-size="660" lengthAdjust="spacingAndGlyphs"
text-anchor="start" opacity="0">IN</text>
<path d="M53040 34720
L53040 34220
" />
<path d="M53280 34720
L53280 34220
L53570 34720
L53570 34220
" />
</g>
<g style="fill:#840000; fill-opacity:0.0; 
stroke:#840000; stroke-width:60; stroke-opacity:1; 
stroke-linecap:round; stroke-linejoin:round;">
<text x="52000" y="34400"
textLength="540" font-size="660" lengthAdjust="spacingAndGlyphs"
text-anchor="middle" opacity="0">6</text>
<path d="M52090 33870
L52000 33870
L51950 33900
L51920 33920
L51880 33990
L51850 34090
L51850 34280
L51880 34320
L51900 34350
L51950 34370
L52040 34370
L52090 34350
L52110 34320
L52140 34280
L52140 34160
L52110 34110
L52090 34090
L52040 34060
L51950 34060
L51900 34090
L51880 34110
L51850 34160
" />
</g>
<g style="fill:#008484; fill-opacity:0.0; 
stroke:#008484; stroke-width:60; stroke-opacity:1; 
stroke-linecap:round; stroke-linejoin:round;">
<text x="55000" y="32120"
textLength="1060" font-size="660" lengthAdjust="spacingAndGlyphs"
text-anchor="middle" opacity="0">U6</text>
<path d="M54610 31590
L54610 32000
L54640 32040
L54660 32070
L54710 32090
L54800 32090
L54850 32070
L54880 32040
L54900 32000
L54900 31590
" />
<path d="M55350 31590
L55260 31590
L55210 31620
L55190 31640
L55140 31710
L55110 31810
L55110 32000
L55140 32040
L55160 32070
L55210 32090
L55300 32090
L55350 32070
L55380 32040
L55400 32000
L55400 31880
L55380 31830
L55350 31810
L55300 31780
L55210 31780
L55160 31810
L55140 31830
L55110 31880
" />
<text x="55000" y="33030"
textLength="7820" font-size="660" lengthAdjust="spacingAndGlyphs"
text-anchor="middle" opacity="0">NCP380HMU21AATBG</text>
<path d="M51230 33000
L51230 32500
L51520 33000
L51520 32500
" />
<path d="M52040 32950
L52020 32980
L51950 33000
L51900 33000
L51830 32980
L51780 32930
L51760 32880
L51730 32790
L51730 32720
L51760 32620
L51780 32570
L51830 32530
L51900 32500
L51950 32500
L52020 32530
L52040 32550
" />
<path d="M52260 33000
L52260 32500
L52450 32500
L52500 32530
L52520 32550
L52540 32600
L52540 32670
L52520 32720
L52500 32740
L52450 32760
L52260 32760
" />
<path d="M52710 32500
L53020 32500
L52850 32690
L52920 32690
L52970 32720
L53000 32740
L53020 32790
L53020 32910
L53000 32950
L52970 32980
L52920 33000
L52780 33000
L52730 32980
L52710 32950
" />
<path d="M53300 32720
L53260 32690
L53230 32670
L53210 32620
L53210 32600
L53230 32550
L53260 32530
L53300 32500
L53400 32500
L53450 32530
L53470 32550
L53500 32600
L53500 32620
L53470 32670
L53450 32690
L53400 32720
L53300 32720
L53260 32740
L53230 32760
L53210 32810
L53210 32910
L53230 32950
L53260 32980
L53300 33000
L53400 33000
L53450 32980
L53470 32950
L53500 32910
L53500 32810
L53470 32760
L53450 32740
L53400 32720
" />
<path d="M53800 32500
L53850 32500
L53900 32530
L53920 32550
L53950 32600
L53970 32690
L53970 32810
L53950 32910
L53920 32950
L53900 32980
L53850 33000
L53800 33000
L53760 32980
L53730 32950
L53710 32910
L53690 32810
L53690 32690
L53710 32600
L53730 32550
L53760 32530
L53800 32500
" />
<path d="M54190 33000
L54190 32500
" />
<path d="M54190 32740
L54470 32740
" />
<path d="M54470 33000
L54470 32500
" />
<path d="M54710 33000
L54710 32500
L54880 32860
L55040 32500
L55040 33000
" />
<path d="M55280 32500
L55280 32910
L55300 32950
L55330 32980
L55380 33000
L55470 33000
L55520 32980
L55540 32950
L55570 32910
L55570 32500
" />
<path d="M55780 32550
L55800 32530
L55850 32500
L55970 32500
L56020 32530
L56040 32550
L56070 32600
L56070 32640
L56040 32720
L55760 33000
L56070 33000
" />
<path d="M56540 33000
L56260 33000
" />
<path d="M56400 33000
L56400 32500
L56350 32570
L56300 32620
L56260 32640
" />
<path d="M56730 32860
L56970 32860
" />
<path d="M56690 33000
L56850 32500
L57020 33000
" />
<path d="M57160 32860
L57400 32860
" />
<path d="M57110 33000
L57280 32500
L57450 33000
" />
<path d="M57540 32500
L57830 32500
" />
<path d="M57690 33000
L57690 32500
" />
<path d="M58160 32740
L58230 32760
L58260 32790
L58280 32830
L58280 32910
L58260 32950
L58230 32980
L58190 33000
L58000 33000
L58000 32500
L58160 32500
L58210 32530
L58230 32550
L58260 32600
L58260 32640
L58230 32690
L58210 32720
L58160 32740
L58000 32740
" />
<path d="M58760 32530
L58710 32500
L58640 32500
L58570 32530
L58520 32570
L58500 32620
L58470 32720
L58470 32790
L58500 32880
L58520 32930
L58570 32980
L58640 33000
L58690 33000
L58760 32980
L58780 32950
L58780 32790
L58690 32790
" />
</g>
</g>
<g style="fill:#008484; fill-opacity:0.0; 
stroke:#008484; stroke-width:0; stroke-opacity:1; 
stroke-linecap:round; stroke-linejoin:round;">
<g >
</g>
<g style="fill:#840000; fill-opacity:0.0; 
stroke:#840000; stroke-width:0; stroke-opacity:1; 
stroke-linecap:round; stroke-linejoin:round;">
</g>
<g style="fill:#840000; fill-opacity:0.0; 
stroke:#840000; stroke-width:80; stroke-opacity:1; 
stroke-linecap:round; stroke-linejoin:round;">
<rect x="47700" y="35300" width="600" height="1400" rx="0" />
</g>
<g style="fill:#840000; fill-opacity:0.0; 
stroke:#840000; stroke-width:60; stroke-opacity:1; 
stroke-linecap:round; stroke-linejoin:round;">
<path d="M48000 35300
L48000 35000
" />
<path d="M48000 36700
L48000 37000
" />
</g>
<g style="fill:#008484; fill-opacity:0.0; 
stroke:#008484; stroke-width:60; stroke-opacity:1; 
stroke-linecap:round; stroke-linejoin:round;">
<text x="49110" y="35810"
textLength="1040" font-size="660" lengthAdjust="spacingAndGlyphs"
text-anchor="middle" opacity="0">R6</text>
<path d="M49020 35780
L48860 35540
" />
<path d="M48740 35780
L48740 35280
L48930 35280
L48970 35310
L49000 35330
L49020 35380
L49020 35450
L49000 35500
L48970 35520
L48930 35540
L48740 35540
" />
<path d="M49450 35280
L49360 35280
L49310 35310
L49280 35330
L49240 35400
L49210 35500
L49210 35690
L49240 35730
L49260 35760
L49310 35780
L49400 35780
L49450 35760
L49470 35730
L49500 35690
L49500 35570
L49470 35520
L49450 35500
L49400 35470
L49310 35470
L49260 35500
L49240 35520
L49210 35570
" />
<text x="49530" y="36720"
textLength="1890" font-size="660" lengthAdjust="spacingAndGlyphs"
text-anchor="middle" opacity="0">100k</text>
<path d="M48990 36690
L48700 36690
" />
<path d="M48850 36690
L48850 36190
L48800 36260
L48750 36310
L48700 36330
" />
<path d="M49300 36190
L49350 36190
L49390 36220
L49420 36240
L49440 36290
L49470 36380
L49470 36500
L49440 36600
L49420 36640
L49390 36670
L49350 36690
L49300 36690
L49250 36670
L49230 36640
L49200 36600
L49180 36500
L49180 36380
L49200 36290
L49230 36240
L49250 36220
L49300 36190
" />
<path d="M49780 36190
L49820 36190
L49870 36220
L49890 36240
L49920 36290
L49940 36380
L49940 36500
L49920 36600
L49890 36640
L49870 36670
L49820 36690
L49780 36690
L49730 36670
L49700 36640
L49680 36600
L49660 36500
L49660 36380
L49680 36290
L49700 36240
L49730 36220
L49780 36190
" />
<path d="M50160 36690
L50160 36190
" />
<path d="M50200 36500
L50350 36690
" />
<path d="M50350 36360
L50160 36550
" />
</g>
</g>
<g style="fill:#008484; fill-opacity:0.0; 
stroke:#008484; stroke-width:0; stroke-opacity:1; 
stroke-linecap:round; stroke-linejoin:round;">
<g >
</g>
<g style="fill:#840000; fill-opacity:0.0; 
stroke:#840000; stroke-width:0; stroke-opacity:1; 
stroke-linecap:round; stroke-linejoin:round;">
</g>
<g style="fill:#840000; fill-opacity:0.0; 
stroke:#840000; stroke-width:60; stroke-opacity:1; 
stroke-linecap:round; stroke-linejoin:round;">
<path style="fill:#840000; fill-opacity:0.0; 
stroke:#840000; stroke-width:60; stroke-opacity:1; 
stroke-linecap:round; stroke-linejoin:round;fill:none"
d="M 60000,41000
60000,41500
60500,41500
60000,42000
59500,41500
60000,41500
" /> 
</g>
<g style="fill:#008484; fill-opacity:0.0; 
stroke:#008484; stroke-width:60; stroke-opacity:1; 
stroke-linecap:round; stroke-linejoin:round;">
<text x="60050" y="43000"
textLength="1580" font-size="660" lengthAdjust="spacingAndGlyphs"
text-anchor="middle" opacity="0">GND</text>
<path d="M59660 42500
L59620 42470
L59550 42470
L59470 42500
L59430 42540
L59400 42590
L59380 42690
L59380 42760
L59400 42850
L59430 42900
L59470 42950
L59550 42970
L59590 42970
L59660 42950
L59690 42920
L59690 42760
L59590 42760
" />
<path d="M59900 42970
L59900 42470
L60190 42970
L60190 42470
" />
<path d="M60430 42970
L60430 42470
L60550 42470
L60620 42500
L60660 42540
L60690 42590
L60710 42690
L60710 42760
L60690 42850
L60660 42900
L60620 42950
L60550 42970
L60430 42970
" />
</g>
</g>
<g style="fill:#008484; fill-opacity:0.0; 
stroke:#008484; stroke-width:0; stroke-opacity:1; 
stroke-linecap:round; stroke-linejoin:round;">
<g >
</g>
<g style="fill:#840000; fill-opacity:0.0; 
stroke:#840000; stroke-width:0; stroke-opacity:1; 
stroke-linecap:round; stroke-linejoin:round;">
</g>
<g style="fill:#840000; fill-opacity:0.0; 
stroke:#840000; stroke-width:80; stroke-opacity:1; 
stroke-linecap:round; stroke-linejoin:round;">
<rect x="59700" y="38800" width="600" height="1400" rx="0" />
</g>
<g style="fill:#840000; fill-opacity:0.0; 
stroke:#840000; stroke-width:60; stroke-opacity:1; 
stroke-linecap:round; stroke-linejoin:round;">
<path d="M60000 38800
L60000 38500
" />
<path d="M60000 40200
L60000 40500
" />
</g>
<g style="fill:#008484; fill-opacity:0.0; 
stroke:#008484; stroke-width:60; stroke-opacity:1; 
stroke-linecap:round; stroke-linejoin:round;">
<text x="61340" y="39310"
textLength="1510" font-size="660" lengthAdjust="spacingAndGlyphs"
text-anchor="middle" opacity="0">R19</text>
<path d="M61010 39280
L60850 39040
" />
<path d="M60730 39280
L60730 38780
L60920 38780
L60970 38810
L60990 38830
L61010 38880
L61010 38950
L60990 39000
L60970 39020
L60920 39040
L60730 39040
" />
<path d="M61490 39280
L61200 39280
" />
<path d="M61350 39280
L61350 38780
L61300 38850
L61250 38900
L61200 38920
" />
<path d="M61730 39280
L61820 39280
L61870 39260
L61890 39230
L61940 39160
L61970 39070
L61970 38880
L61940 38830
L61920 38810
L61870 38780
L61780 38780
L61730 38810
L61700 38830
L61680 38880
L61680 39000
L61700 39040
L61730 39070
L61780 39090
L61870 39090
L61920 39070
L61940 39040
L61970 39000
" />
<text x="61380" y="40220"
textLength="1580" font-size="660" lengthAdjust="spacingAndGlyphs"
text-anchor="middle" opacity="0">DNP</text>
<path d="M60730 40190
L60730 39690
L60850 39690
L60920 39720
L60970 39760
L60990 39810
L61020 39910
L61020 39980
L60990 40070
L60970 40120
L60920 40170
L60850 40190
L60730 40190
" />
<path d="M61230 40190
L61230 39690
L61520 40190
L61520 39690
" />
<path d="M61760 40190
L61760 39690
L61950 39690
L61990 39720
L62020 39740
L62040 39790
L62040 39860
L62020 39910
L61990 39930
L61950 39950
L61760 39950
" />
</g>
</g>
<g style="fill:#008484; fill-opacity:0.0; 
stroke:#008484; stroke-width:60; stroke-opacity:1; 
stroke-linecap:round; stroke-linejoin:round;">
</g>
<g style="fill:#008400; fill-opacity:0.0; 
stroke:#008400; stroke-width:60; stroke-opacity:1; 
stroke-linecap:round; stroke-linejoin:round;">
<path d="M42000 38500
L51500 38500
" />
<path d="M61500 37500
L60000 37500
" />
<path d="M58500 34500
L65000 34500
" />
<path d="M48000 37500
L42000 37500
" />
<path d="M60000 41000
L60000 40500
" />
<path d="M60000 37500
L58500 37500
" />
<path d="M60000 38500
L60000 37500
" />
<path d="M48000 34500
L51500 34500
" />
<path d="M48000 35000
L48000 34500
" />
<path d="M48000 37500
L48000 37000
" />
<path d="M51500 37500
L48000 37500
" />
<path d="M42000 34500
L48000 34500
" />
<path d="M55000 43000
L55000 42500
" />
</g>
<g style="fill:#848400; fill-opacity:0.0; 
stroke:#848400; stroke-width:60; stroke-opacity:1; 
stroke-linecap:round; stroke-linejoin:round;">
<text x="41400" y="34750"
textLength="1180" font-size="660" lengthAdjust="spacingAndGlyphs"
text-anchor="end" opacity="0">Vin</text>
<path d="M40290 34220
L40460 34720
L40630 34220
" />
<path d="M40790 34720
L40790 34390
" />
<path d="M40790 34220
L40770 34250
L40790 34270
L40820 34250
L40790 34220
L40790 34270
" />
<path d="M41030 34390
L41030 34720
" />
<path d="M41030 34440
L41060 34410
L41100 34390
L41170 34390
L41220 34410
L41250 34460
L41250 34720
" />
</g>
<g style="fill:#848400; fill-opacity:0.0; 
stroke:#848400; stroke-width:100; stroke-opacity:1; 
stroke-linecap:round; stroke-linejoin:round;">
<path style="fill:#848400; fill-opacity:0.0; 
stroke:#848400; stroke-width:100; stroke-opacity:1; 
stroke-linecap:round; stroke-linejoin:round;fill:none"
d="M 42000,34500
41750,34250
41500,34250
41500,34750
41750,34750
Z" /> 
</g>
<g style="fill:#848400; fill-opacity:0.0; 
stroke:#848400; stroke-width:60; stroke-opacity:1; 
stroke-linecap:round; stroke-linejoin:round;">
<text x="41400" y="37750"
textLength="1820" font-size="660" lengthAdjust="spacingAndGlyphs"
text-anchor="end" opacity="0">~FLAG</text>
<path d="M39600 37080
L40030 37080
" />
<path d="M39890 37460
L39720 37460
" />
<path d="M39720 37720
L39720 37220
L39960 37220
" />
<path d="M40030 37080
L40440 37080
" />
<path d="M40390 37720
L40150 37720
L40150 37220
" />
<path d="M40440 37080
L40870 37080
" />
<path d="M40530 37580
L40770 37580
" />
<path d="M40480 37720
L40650 37220
L40820 37720
" />
<path d="M40870 37080
L41370 37080
" />
<path d="M41250 37250
L41200 37220
L41130 37220
L41060 37250
L41010 37290
L40980 37340
L40960 37440
L40960 37510
L40980 37600
L41010 37650
L41060 37700
L41130 37720
L41170 37720
L41250 37700
L41270 37670
L41270 37510
L41170 37510
" />
</g>
<g style="fill:#848400; fill-opacity:0.0; 
stroke:#848400; stroke-width:100; stroke-opacity:1; 
stroke-linecap:round; stroke-linejoin:round;">
<path style="fill:#848400; fill-opacity:0.0; 
stroke:#848400; stroke-width:100; stroke-opacity:1; 
stroke-linecap:round; stroke-linejoin:round;fill:none"
d="M 41500,37500
41750,37750
42000,37750
42000,37250
41750,37250
Z" /> 
</g>
<g style="fill:#848400; fill-opacity:0.0; 
stroke:#848400; stroke-width:60; stroke-opacity:1; 
stroke-linecap:round; stroke-linejoin:round;">
<text x="65600" y="34750"
textLength="1680" font-size="660" lengthAdjust="spacingAndGlyphs"
text-anchor="start" opacity="0">Vout</text>
<path d="M65670 34220
L65840 34720
L66010 34220
" />
<path d="M66240 34720
L66200 34700
L66170 34670
L66150 34630
L66150 34480
L66170 34440
L66200 34410
L66240 34390
L66320 34390
L66360 34410
L66390 34440
L66410 34480
L66410 34630
L66390 34670
L66360 34700
L66320 34720
L66240 34720
" />
<path d="M66840 34390
L66840 34720
" />
<path d="M66630 34390
L66630 34650
L66650 34700
L66700 34720
L66770 34720
L66820 34700
L66840 34670
" />
<path d="M67010 34390
L67200 34390
" />
<path d="M67080 34220
L67080 34650
L67100 34700
L67150 34720
L67200 34720
" />
</g>
<g style="fill:#848400; fill-opacity:0.0; 
stroke:#848400; stroke-width:100; stroke-opacity:1; 
stroke-linecap:round; stroke-linejoin:round;">
<path style="fill:#848400; fill-opacity:0.0; 
stroke:#848400; stroke-width:100; stroke-opacity:1; 
stroke-linecap:round; stroke-linejoin:round;fill:none"
d="M 65500,34500
65250,34250
65000,34250
65000,34750
65250,34750
Z" /> 
</g>
<g style="fill:#848400; fill-opacity:0.0; 
stroke:#848400; stroke-width:60; stroke-opacity:1; 
stroke-linecap:round; stroke-linejoin:round;">
<text x="41400" y="38750"
textLength="3960" font-size="660" lengthAdjust="spacingAndGlyphs"
text-anchor="end" opacity="0">~OP_Enable</text>
<path d="M37460 38080
L37980 38080
" />
<path d="M37670 38220
L37770 38220
L37820 38250
L37870 38290
L37890 38390
L37890 38550
L37870 38650
L37820 38700
L37770 38720
L37670 38720
L37630 38700
L37580 38650
L37560 38550
L37560 38390
L37580 38290
L37630 38250
L37670 38220
" />
<path d="M37980 38080
L38480 38080
" />
<path d="M38100 38720
L38100 38220
L38290 38220
L38340 38250
L38370 38270
L38390 38320
L38390 38390
L38370 38440
L38340 38460
L38290 38480
L38100 38480
" />
<path d="M38480 38080
L38870 38080
" />
<path d="M38480 38770
L38870 38770
" />
<path d="M38870 38080
L39320 38080
" />
<path d="M38980 38460
L39150 38460
" />
<path d="M39220 38720
L38980 38720
L38980 38220
L39220 38220
" />
<path d="M39320 38080
L39770 38080
" />
<path d="M39440 38390
L39440 38720
" />
<path d="M39440 38440
L39460 38410
L39510 38390
L39580 38390
L39630 38410
L39650 38460
L39650 38720
" />
<path d="M39770 38080
L40220 38080
" />
<path d="M40100 38720
L40100 38460
L40080 38410
L40030 38390
L39940 38390
L39890 38410
" />
<path d="M40100 38700
L40060 38720
L39940 38720
L39890 38700
L39870 38650
L39870 38600
L39890 38550
L39940 38530
L40060 38530
L40100 38510
" />
<path d="M40220 38080
L40670 38080
" />
<path d="M40340 38720
L40340 38220
" />
<path d="M40340 38410
L40390 38390
L40480 38390
L40530 38410
L40560 38440
L40580 38480
L40580 38630
L40560 38670
L40530 38700
L40480 38720
L40390 38720
L40340 38700
" />
<path d="M40670 38080
L40940 38080
" />
<path d="M40870 38720
L40820 38700
L40790 38650
L40790 38220
" />
<path d="M40940 38080
L41370 38080
" />
<path d="M41250 38700
L41200 38720
L41100 38720
L41060 38700
L41030 38650
L41030 38460
L41060 38410
L41100 38390
L41200 38390
L41250 38410
L41270 38460
L41270 38510
L41030 38550
" />
</g>
<g style="fill:#848400; fill-opacity:0.0; 
stroke:#848400; stroke-width:100; stroke-opacity:1; 
stroke-linecap:round; stroke-linejoin:round;">
<path style="fill:#848400; fill-opacity:0.0; 
stroke:#848400; stroke-width:100; stroke-opacity:1; 
stroke-linecap:round; stroke-linejoin:round;fill:none"
d="M 42000,38500
41750,38250
41500,38250
41500,38750
41750,38750
Z" /> 
</g>
<g style="fill:#848400; fill-opacity:0.0; 
stroke:#848400; stroke-width:60; stroke-opacity:1; 
stroke-linecap:round; stroke-linejoin:round;">
</g>
<g style="fill:#0000C2; fill-opacity:0.0; 
stroke:#0000C2; stroke-width:60; stroke-opacity:1; 
stroke-linecap:round; stroke-linejoin:round;">
<text x="51500" y="46900"
textLength="7540" font-size="660" lengthAdjust="spacingAndGlyphs"
text-anchor="start" opacity="0">RasPi Power Switch</text>
<path d="M51930 46870
L51760 46630
" />
<path d="M51640 46870
L51640 46370
L51830 46370
L51880 46400
L51910 46420
L51930 46470
L51930 46540
L51910 46590
L51880 46610
L51830 46630
L51640 46630
" />
<path d="M52360 46870
L52360 46610
L52330 46560
L52290 46540
L52190 46540
L52140 46560
" />
<path d="M52360 46850
L52310 46870
L52190 46870
L52140 46850
L52120 46800
L52120 46750
L52140 46700
L52190 46680
L52310 46680
L52360 46660
" />
<path d="M52570 46850
L52620 46870
L52720 46870
L52760 46850
L52790 46800
L52790 46780
L52760 46730
L52720 46700
L52640 46700
L52600 46680
L52570 46630
L52570 46610
L52600 46560
L52640 46540
L52720 46540
L52760 46560
" />
<path d="M53000 46870
L53000 46370
L53190 46370
L53240 46400
L53260 46420
L53290 46470
L53290 46540
L53260 46590
L53240 46610
L53190 46630
L53000 46630
" />
<path d="M53500 46870
L53500 46540
" />
<path d="M53500 46370
L53480 46400
L53500 46420
L53530 46400
L53500 46370
L53500 46420
" />
<path d="M54120 46870
L54120 46370
L54310 46370
L54360 46400
L54380 46420
L54410 46470
L54410 46540
L54380 46590
L54360 46610
L54310 46630
L54120 46630
" />
<path d="M54690 46870
L54640 46850
L54620 46820
L54600 46780
L54600 46630
L54620 46590
L54640 46560
L54690 46540
L54760 46540
L54810 46560
L54830 46590
L54860 46630
L54860 46780
L54830 46820
L54810 46850
L54760 46870
L54690 46870
" />
<path d="M55030 46540
L55120 46870
L55220 46630
L55310 46870
L55410 46540
" />
<path d="M55790 46850
L55740 46870
L55640 46870
L55600 46850
L55570 46800
L55570 46610
L55600 46560
L55640 46540
L55740 46540
L55790 46560
L55810 46610
L55810 46660
L55570 46700
" />
<path d="M56030 46870
L56030 46540
" />
<path d="M56030 46630
L56050 46590
L56070 46560
L56120 46540
L56170 46540
" />
<path d="M56690 46850
L56760 46870
L56880 46870
L56930 46850
L56950 46820
L56980 46780
L56980 46730
L56950 46680
L56930 46660
L56880 46630
L56790 46610
L56740 46590
L56720 46560
L56690 46510
L56690 46470
L56720 46420
L56740 46400
L56790 46370
L56910 46370
L56980 46400
" />
<path d="M57140 46540
L57240 46870
L57330 46630
L57430 46870
L57530 46540
" />
<path d="M57720 46870
L57720 46540
" />
<path d="M57720 46370
L57690 46400
L57720 46420
L57740 46400
L57720 46370
L57720 46420
" />
<path d="M57880 46540
L58070 46540
" />
<path d="M57950 46370
L57950 46800
L57980 46850
L58030 46870
L58070 46870
" />
<path d="M58450 46850
L58410 46870
L58310 46870
L58260 46850
L58240 46820
L58220 46780
L58220 46630
L58240 46590
L58260 46560
L58310 46540
L58410 46540
L58450 46560
" />
<path d="M58670 46870
L58670 46370
" />
<path d="M58880 46870
L58880 46610
L58860 46560
L58810 46540
L58740 46540
L58690 46560
L58670 46590
" />
<text x="11000" y="56780"
textLength="2180" font-size="660" lengthAdjust="spacingAndGlyphs"
text-anchor="start" opacity="0">NOTE:</text>
<path d="M11140 56750
L11140 56250
L11430 56750
L11430 56250
" />
<path d="M11760 56250
L11860 56250
L11910 56280
L11950 56320
L11980 56420
L11980 56580
L11950 56680
L11910 56730
L11860 56750
L11760 56750
L11720 56730
L11670 56680
L11640 56580
L11640 56420
L11670 56320
L11720 56280
L11760 56250
" />
<path d="M12120 56250
L12410 56250
" />
<path d="M12260 56750
L12260 56250
" />
<path d="M12570 56490
L12740 56490
" />
<path d="M12810 56750
L12570 56750
L12570 56250
L12810 56250
" />
<path d="M13030 56700
L13050 56730
L13030 56750
L13000 56730
L13030 56700
L13030 56750
" />
<path d="M13030 56440
L13050 56470
L13030 56490
L13000 56470
L13030 56440
L13030 56490
" />
<text x="11000" y="57590"
textLength="26630" font-size="660" lengthAdjust="spacingAndGlyphs"
text-anchor="start" opacity="0">This sheet will include the output protection and load switching FET.</text>
<path d="M11070 57060
L11360 57060
" />
<path d="M11220 57560
L11220 57060
" />
<path d="M11530 57560
L11530 57060
" />
<path d="M11740 57560
L11740 57300
L11720 57250
L11670 57230
L11600 57230
L11550 57250
L11530 57280
" />
<path d="M11980 57560
L11980 57230
" />
<path d="M11980 57060
L11950 57090
L11980 57110
L12000 57090
L11980 57060
L11980 57110
" />
<path d="M12190 57540
L12240 57560
L12330 57560
L12380 57540
L12410 57490
L12410 57470
L12380 57420
L12330 57390
L12260 57390
L12220 57370
L12190 57320
L12190 57300
L12220 57250
L12260 57230
L12330 57230
L12380 57250
" />
<path d="M12980 57540
L13030 57560
L13120 57560
L13170 57540
L13190 57490
L13190 57470
L13170 57420
L13120 57390
L13050 57390
L13000 57370
L12980 57320
L12980 57300
L13000 57250
L13050 57230
L13120 57230
L13170 57250
" />
<path d="M13410 57560
L13410 57060
" />
<path d="M13620 57560
L13620 57300
L13600 57250
L13550 57230
L13480 57230
L13430 57250
L13410 57280
" />
<path d="M14050 57540
L14000 57560
L13910 57560
L13860 57540
L13830 57490
L13830 57300
L13860 57250
L13910 57230
L14000 57230
L14050 57250
L14070 57300
L14070 57350
L13830 57390
" />
<path d="M14480 57540
L14430 57560
L14330 57560
L14290 57540
L14260 57490
L14260 57300
L14290 57250
L14330 57230
L14430 57230
L14480 57250
L14500 57300
L14500 57350
L14260 57390
" />
<path d="M14640 57230
L14830 57230
" />
<path d="M14720 57060
L14720 57490
L14740 57540
L14790 57560
L14830 57560
" />
<path d="M15330 57230
L15430 57560
L15530 57320
L15620 57560
L15720 57230
" />
<path d="M15910 57560
L15910 57230
" />
<path d="M15910 57060
L15880 57090
L15910 57110
L15930 57090
L15910 57060
L15910 57110
" />
<path d="M16220 57560
L16170 57540
L16140 57490
L16140 57060
" />
<path d="M16480 57560
L16430 57540
L16410 57490
L16410 57060
" />
<path d="M17050 57560
L17050 57230
" />
<path d="M17050 57060
L17020 57090
L17050 57110
L17070 57090
L17050 57060
L17050 57110
" />
<path d="M17290 57230
L17290 57560
" />
<path d="M17290 57280
L17310 57250
L17360 57230
L17430 57230
L17480 57250
L17500 57300
L17500 57560
" />
<path d="M17950 57540
L17910 57560
L17810 57560
L17760 57540
L17740 57510
L17720 57470
L17720 57320
L17740 57280
L17760 57250
L17810 57230
L17910 57230
L17950 57250
" />
<path d="M18240 57560
L18190 57540
L18170 57490
L18170 57060
" />
<path d="M18640 57230
L18640 57560
" />
<path d="M18430 57230
L18430 57490
L18450 57540
L18500 57560
L18570 57560
L18620 57540
L18640 57510
" />
<path d="M19100 57560
L19100 57060
" />
<path d="M19100 57540
L19050 57560
L18950 57560
L18910 57540
L18880 57510
L18860 57470
L18860 57320
L18880 57280
L18910 57250
L18950 57230
L19050 57230
L19100 57250
" />
<path d="M19520 57540
L19480 57560
L19380 57560
L19330 57540
L19310 57490
L19310 57300
L19330 57250
L19380 57230
L19480 57230
L19520 57250
L19550 57300
L19550 57350
L19310 57390
" />
<path d="M20070 57230
L20260 57230
" />
<path d="M20140 57060
L20140 57490
L20170 57540
L20220 57560
L20260 57560
" />
<path d="M20430 57560
L20430 57060
" />
<path d="M20640 57560
L20640 57300
L20620 57250
L20570 57230
L20500 57230
L20450 57250
L20430 57280
" />
<path d="M21070 57540
L21020 57560
L20930 57560
L20880 57540
L20860 57490
L20860 57300
L20880 57250
L20930 57230
L21020 57230
L21070 57250
L21100 57300
L21100 57350
L20860 57390
" />
<path d="M21760 57560
L21720 57540
L21690 57510
L21670 57470
L21670 57320
L21690 57280
L21720 57250
L21760 57230
L21830 57230
L21880 57250
L21910 57280
L21930 57320
L21930 57470
L21910 57510
L21880 57540
L21830 57560
L21760 57560
" />
<path d="M22360 57230
L22360 57560
" />
<path d="M22140 57230
L22140 57490
L22170 57540
L22220 57560
L22290 57560
L22330 57540
L22360 57510
" />
<path d="M22520 57230
L22720 57230
" />
<path d="M22600 57060
L22600 57490
L22620 57540
L22670 57560
L22720 57560
" />
<path d="M22880 57230
L22880 57730
" />
<path d="M22880 57250
L22930 57230
L23020 57230
L23070 57250
L23100 57280
L23120 57320
L23120 57470
L23100 57510
L23070 57540
L23020 57560
L22930 57560
L22880 57540
" />
<path d="M23550 57230
L23550 57560
" />
<path d="M23330 57230
L23330 57490
L23360 57540
L23410 57560
L23480 57560
L23520 57540
L23550 57510
" />
<path d="M23720 57230
L23910 57230
" />
<path d="M23790 57060
L23790 57490
L23810 57540
L23860 57560
L23910 57560
" />
<path d="M24450 57230
L24450 57730
" />
<path d="M24450 57250
L24500 57230
L24600 57230
L24640 57250
L24670 57280
L24690 57320
L24690 57470
L24670 57510
L24640 57540
L24600 57560
L24500 57560
L24450 57540
" />
<path d="M24910 57560
L24910 57230
" />
<path d="M24910 57320
L24930 57280
L24950 57250
L25000 57230
L25050 57230
" />
<path d="M25290 57560
L25240 57540
L25220 57510
L25190 57470
L25190 57320
L25220 57280
L25240 57250
L25290 57230
L25360 57230
L25410 57250
L25430 57280
L25450 57320
L25450 57470
L25430 57510
L25410 57540
L25360 57560
L25290 57560
" />
<path d="M25600 57230
L25790 57230
" />
<path d="M25670 57060
L25670 57490
L25690 57540
L25740 57560
L25790 57560
" />
<path d="M26140 57540
L26100 57560
L26000 57560
L25950 57540
L25930 57490
L25930 57300
L25950 57250
L26000 57230
L26100 57230
L26140 57250
L26170 57300
L26170 57350
L25930 57390
" />
<path d="M26600 57540
L26550 57560
L26450 57560
L26410 57540
L26380 57510
L26360 57470
L26360 57320
L26380 57280
L26410 57250
L26450 57230
L26550 57230
L26600 57250
" />
<path d="M26740 57230
L26930 57230
" />
<path d="M26810 57060
L26810 57490
L26830 57540
L26880 57560
L26930 57560
" />
<path d="M27100 57560
L27100 57230
" />
<path d="M27100 57060
L27070 57090
L27100 57110
L27120 57090
L27100 57060
L27100 57110
" />
<path d="M27410 57560
L27360 57540
L27330 57510
L27310 57470
L27310 57320
L27330 57280
L27360 57250
L27410 57230
L27480 57230
L27530 57250
L27550 57280
L27570 57320
L27570 57470
L27550 57510
L27530 57540
L27480 57560
L27410 57560
" />
<path d="M27790 57230
L27790 57560
" />
<path d="M27790 57280
L27810 57250
L27860 57230
L27930 57230
L27980 57250
L28000 57300
L28000 57560
" />
<path d="M28830 57560
L28830 57300
L28810 57250
L28760 57230
L28670 57230
L28620 57250
" />
<path d="M28830 57540
L28790 57560
L28670 57560
L28620 57540
L28600 57490
L28600 57440
L28620 57390
L28670 57370
L28790 57370
L28830 57350
" />
<path d="M29070 57230
L29070 57560
" />
<path d="M29070 57280
L29100 57250
L29140 57230
L29220 57230
L29260 57250
L29290 57300
L29290 57560
" />
<path d="M29740 57560
L29740 57060
" />
<path d="M29740 57540
L29690 57560
L29600 57560
L29550 57540
L29520 57510
L29500 57470
L29500 57320
L29520 57280
L29550 57250
L29600 57230
L29690 57230
L29740 57250
" />
<path d="M30430 57560
L30380 57540
L30360 57490
L30360 57060
" />
<path d="M30690 57560
L30640 57540
L30620 57510
L30600 57470
L30600 57320
L30620 57280
L30640 57250
L30690 57230
L30760 57230
L30810 57250
L30830 57280
L30860 57320
L30860 57470
L30830 57510
L30810 57540
L30760 57560
L30690 57560
" />
<path d="M31290 57560
L31290 57300
L31260 57250
L31220 57230
L31120 57230
L31070 57250
" />
<path d="M31290 57540
L31240 57560
L31120 57560
L31070 57540
L31050 57490
L31050 57440
L31070 57390
L31120 57370
L31240 57370
L31290 57350
" />
<path d="M31740 57560
L31740 57060
" />
<path d="M31740 57540
L31690 57560
L31600 57560
L31550 57540
L31520 57510
L31500 57470
L31500 57320
L31520 57280
L31550 57250
L31600 57230
L31690 57230
L31740 57250
" />
<path d="M32330 57540
L32380 57560
L32480 57560
L32520 57540
L32550 57490
L32550 57470
L32520 57420
L32480 57390
L32410 57390
L32360 57370
L32330 57320
L32330 57300
L32360 57250
L32410 57230
L32480 57230
L32520 57250
" />
<path d="M32720 57230
L32810 57560
L32910 57320
L33000 57560
L33100 57230
" />
<path d="M33290 57560
L33290 57230
" />
<path d="M33290 57060
L33260 57090
L33290 57110
L33310 57090
L33290 57060
L33290 57110
" />
<path d="M33450 57230
L33640 57230
" />
<path d="M33520 57060
L33520 57490
L33550 57540
L33600 57560
L33640 57560
" />
<path d="M34020 57540
L33980 57560
L33880 57560
L33830 57540
L33810 57510
L33790 57470
L33790 57320
L33810 57280
L33830 57250
L33880 57230
L33980 57230
L34020 57250
" />
<path d="M34240 57560
L34240 57060
" />
<path d="M34450 57560
L34450 57300
L34430 57250
L34380 57230
L34310 57230
L34260 57250
L34240 57280
" />
<path d="M34690 57560
L34690 57230
" />
<path d="M34690 57060
L34670 57090
L34690 57110
L34720 57090
L34690 57060
L34690 57110
" />
<path d="M34930 57230
L34930 57560
" />
<path d="M34930 57280
L34950 57250
L35000 57230
L35070 57230
L35120 57250
L35140 57300
L35140 57560
" />
<path d="M35600 57230
L35600 57630
L35570 57680
L35550 57700
L35500 57730
L35430 57730
L35380 57700
" />
<path d="M35600 57540
L35550 57560
L35450 57560
L35410 57540
L35380 57510
L35360 57470
L35360 57320
L35380 57280
L35410 57250
L35450 57230
L35550 57230
L35600 57250
" />
<path d="M36380 57300
L36220 57300
" />
<path d="M36220 57560
L36220 57060
L36450 57060
" />
<path d="M36640 57300
L36810 57300
" />
<path d="M36880 57560
L36640 57560
L36640 57060
L36880 57060
" />
<path d="M37020 57060
L37310 57060
" />
<path d="M37170 57560
L37170 57060
" />
<path d="M37480 57510
L37500 57540
L37480 57560
L37450 57540
L37480 57510
L37480 57560
" />
<text x="11000" y="58400"
textLength="37750" font-size="660" lengthAdjust="spacingAndGlyphs"
text-anchor="start" opacity="0">This sheet is kept separate to allow the inclusion of current measurement circuits in future revs.</text>
<path d="M11070 57870
L11360 57870
" />
<path d="M11220 58370
L11220 57870
" />
<path d="M11530 58370
L11530 57870
" />
<path d="M11740 58370
L11740 58110
L11720 58060
L11670 58040
L11600 58040
L11550 58060
L11530 58090
" />
<path d="M11980 58370
L11980 58040
" />
<path d="M11980 57870
L11950 57900
L11980 57920
L12000 57900
L11980 57870
L11980 57920
" />
<path d="M12190 58350
L12240 58370
L12330 58370
L12380 58350
L12410 58300
L12410 58280
L12380 58230
L12330 58200
L12260 58200
L12220 58180
L12190 58130
L12190 58110
L12220 58060
L12260 58040
L12330 58040
L12380 58060
" />
<path d="M12980 58350
L13030 58370
L13120 58370
L13170 58350
L13190 58300
L13190 58280
L13170 58230
L13120 58200
L13050 58200
L13000 58180
L12980 58130
L12980 58110
L13000 58060
L13050 58040
L13120 58040
L13170 58060
" />
<path d="M13410 58370
L13410 57870
" />
<path d="M13620 58370
L13620 58110
L13600 58060
L13550 58040
L13480 58040
L13430 58060
L13410 58090
" />
<path d="M14050 58350
L14000 58370
L13910 58370
L13860 58350
L13830 58300
L13830 58110
L13860 58060
L13910 58040
L14000 58040
L14050 58060
L14070 58110
L14070 58160
L13830 58200
" />
<path d="M14480 58350
L14430 58370
L14330 58370
L14290 58350
L14260 58300
L14260 58110
L14290 58060
L14330 58040
L14430 58040
L14480 58060
L14500 58110
L14500 58160
L14260 58200
" />
<path d="M14640 58040
L14830 58040
" />
<path d="M14720 57870
L14720 58300
L14740 58350
L14790 58370
L14830 58370
" />
<path d="M15380 58370
L15380 58040
" />
<path d="M15380 57870
L15360 57900
L15380 57920
L15410 57900
L15380 57870
L15380 57920
" />
<path d="M15600 58350
L15640 58370
L15740 58370
L15790 58350
L15810 58300
L15810 58280
L15790 58230
L15740 58200
L15670 58200
L15620 58180
L15600 58130
L15600 58110
L15620 58060
L15670 58040
L15740 58040
L15790 58060
" />
<path d="M16410 58370
L16410 57870
" />
<path d="M16450 58180
L16600 58370
" />
<path d="M16600 58040
L16410 58230
" />
<path d="M17000 58350
L16950 58370
L16860 58370
L16810 58350
L16790 58300
L16790 58110
L16810 58060
L16860 58040
L16950 58040
L17000 58060
L17030 58110
L17030 58160
L16790 58200
" />
<path d="M17240 58040
L17240 58540
" />
<path d="M17240 58060
L17290 58040
L17380 58040
L17430 58060
L17450 58090
L17480 58130
L17480 58280
L17450 58320
L17430 58350
L17380 58370
L17290 58370
L17240 58350
" />
<path d="M17620 58040
L17810 58040
" />
<path d="M17690 57870
L17690 58300
L17720 58350
L17760 58370
L17810 58370
" />
<path d="M18330 58350
L18380 58370
L18480 58370
L18530 58350
L18550 58300
L18550 58280
L18530 58230
L18480 58200
L18410 58200
L18360 58180
L18330 58130
L18330 58110
L18360 58060
L18410 58040
L18480 58040
L18530 58060
" />
<path d="M18950 58350
L18910 58370
L18810 58370
L18760 58350
L18740 58300
L18740 58110
L18760 58060
L18810 58040
L18910 58040
L18950 58060
L18980 58110
L18980 58160
L18740 58200
" />
<path d="M19190 58040
L19190 58540
" />
<path d="M19190 58060
L19240 58040
L19330 58040
L19380 58060
L19410 58090
L19430 58130
L19430 58280
L19410 58320
L19380 58350
L19330 58370
L19240 58370
L19190 58350
" />
<path d="M19860 58370
L19860 58110
L19830 58060
L19790 58040
L19690 58040
L19640 58060
" />
<path d="M19860 58350
L19810 58370
L19690 58370
L19640 58350
L19620 58300
L19620 58250
L19640 58200
L19690 58180
L19810 58180
L19860 58160
" />
<path d="M20100 58370
L20100 58040
" />
<path d="M20100 58130
L20120 58090
L20140 58060
L20190 58040
L20240 58040
" />
<path d="M20620 58370
L20620 58110
L20600 58060
L20550 58040
L20450 58040
L20410 58060
" />
<path d="M20620 58350
L20570 58370
L20450 58370
L20410 58350
L20380 58300
L20380 58250
L20410 58200
L20450 58180
L20570 58180
L20620 58160
" />
<path d="M20790 58040
L20980 58040
" />
<path d="M20860 57870
L20860 58300
L20880 58350
L20930 58370
L20980 58370
" />
<path d="M21330 58350
L21290 58370
L21190 58370
L21140 58350
L21120 58300
L21120 58110
L21140 58060
L21190 58040
L21290 58040
L21330 58060
L21360 58110
L21360 58160
L21120 58200
" />
<path d="M21880 58040
L22070 58040
" />
<path d="M21950 57870
L21950 58300
L21980 58350
L22030 58370
L22070 58370
" />
<path d="M22310 58370
L22260 58350
L22240 58320
L22220 58280
L22220 58130
L22240 58090
L22260 58060
L22310 58040
L22380 58040
L22430 58060
L22450 58090
L22480 58130
L22480 58280
L22450 58320
L22430 58350
L22380 58370
L22310 58370
" />
<path d="M23290 58370
L23290 58110
L23260 58060
L23220 58040
L23120 58040
L23070 58060
" />
<path d="M23290 58350
L23240 58370
L23120 58370
L23070 58350
L23050 58300
L23050 58250
L23070 58200
L23120 58180
L23240 58180
L23290 58160
" />
<path d="M23600 58370
L23550 58350
L23530 58300
L23530 57870
" />
<path d="M23860 58370
L23810 58350
L23790 58300
L23790 57870
" />
<path d="M24120 58370
L24070 58350
L24050 58320
L24030 58280
L24030 58130
L24050 58090
L24070 58060
L24120 58040
L24190 58040
L24240 58060
L24260 58090
L24290 58130
L24290 58280
L24260 58320
L24240 58350
L24190 58370
L24120 58370
" />
<path d="M24450 58040
L24550 58370
L24640 58130
L24740 58370
L24830 58040
" />
<path d="M25330 58040
L25520 58040
" />
<path d="M25410 57870
L25410 58300
L25430 58350
L25480 58370
L25520 58370
" />
<path d="M25690 58370
L25690 57870
" />
<path d="M25910 58370
L25910 58110
L25880 58060
L25830 58040
L25760 58040
L25720 58060
L25690 58090
" />
<path d="M26330 58350
L26290 58370
L26190 58370
L26140 58350
L26120 58300
L26120 58110
L26140 58060
L26190 58040
L26290 58040
L26330 58060
L26360 58110
L26360 58160
L26120 58200
" />
<path d="M26950 58370
L26950 58040
" />
<path d="M26950 57870
L26930 57900
L26950 57920
L26980 57900
L26950 57870
L26950 57920
" />
<path d="M27190 58040
L27190 58370
" />
<path d="M27190 58090
L27220 58060
L27260 58040
L27330 58040
L27380 58060
L27410 58110
L27410 58370
" />
<path d="M27860 58350
L27810 58370
L27720 58370
L27670 58350
L27640 58320
L27620 58280
L27620 58130
L27640 58090
L27670 58060
L27720 58040
L27810 58040
L27860 58060
" />
<path d="M28140 58370
L28100 58350
L28070 58300
L28070 57870
" />
<path d="M28550 58040
L28550 58370
" />
<path d="M28330 58040
L28330 58300
L28360 58350
L28410 58370
L28480 58370
L28520 58350
L28550 58320
" />
<path d="M28760 58350
L28810 58370
L28910 58370
L28950 58350
L28980 58300
L28980 58280
L28950 58230
L28910 58200
L28830 58200
L28790 58180
L28760 58130
L28760 58110
L28790 58060
L28830 58040
L28910 58040
L28950 58060
" />
<path d="M29190 58370
L29190 58040
" />
<path d="M29190 57870
L29170 57900
L29190 57920
L29220 57900
L29190 57870
L29190 57920
" />
<path d="M29500 58370
L29450 58350
L29430 58320
L29410 58280
L29410 58130
L29430 58090
L29450 58060
L29500 58040
L29570 58040
L29620 58060
L29640 58090
L29670 58130
L29670 58280
L29640 58320
L29620 58350
L29570 58370
L29500 58370
" />
<path d="M29880 58040
L29880 58370
" />
<path d="M29880 58090
L29910 58060
L29950 58040
L30020 58040
L30070 58060
L30100 58110
L30100 58370
" />
<path d="M30790 58370
L30740 58350
L30720 58320
L30690 58280
L30690 58130
L30720 58090
L30740 58060
L30790 58040
L30860 58040
L30910 58060
L30930 58090
L30950 58130
L30950 58280
L30930 58320
L30910 58350
L30860 58370
L30790 58370
" />
<path d="M31100 58040
L31290 58040
" />
<path d="M31170 58370
L31170 57940
L31190 57900
L31240 57870
L31290 57870
" />
<path d="M32050 58350
L32000 58370
L31910 58370
L31860 58350
L31830 58320
L31810 58280
L31810 58130
L31830 58090
L31860 58060
L31910 58040
L32000 58040
L32050 58060
" />
<path d="M32480 58040
L32480 58370
" />
<path d="M32260 58040
L32260 58300
L32290 58350
L32330 58370
L32410 58370
L32450 58350
L32480 58320
" />
<path d="M32720 58370
L32720 58040
" />
<path d="M32720 58130
L32740 58090
L32760 58060
L32810 58040
L32860 58040
" />
<path d="M33020 58370
L33020 58040
" />
<path d="M33020 58130
L33050 58090
L33070 58060
L33120 58040
L33170 58040
" />
<path d="M33520 58350
L33480 58370
L33380 58370
L33330 58350
L33310 58300
L33310 58110
L33330 58060
L33380 58040
L33480 58040
L33520 58060
L33550 58110
L33550 58160
L33310 58200
" />
<path d="M33760 58040
L33760 58370
" />
<path d="M33760 58090
L33790 58060
L33830 58040
L33910 58040
L33950 58060
L33980 58110
L33980 58370
" />
<path d="M34140 58040
L34330 58040
" />
<path d="M34220 57870
L34220 58300
L34240 58350
L34290 58370
L34330 58370
" />
<path d="M34880 58370
L34880 58040
" />
<path d="M34880 58090
L34910 58060
L34950 58040
L35020 58040
L35070 58060
L35100 58110
L35100 58370
" />
<path d="M35100 58110
L35120 58060
L35170 58040
L35240 58040
L35290 58060
L35310 58110
L35310 58370
" />
<path d="M35740 58350
L35690 58370
L35600 58370
L35550 58350
L35520 58300
L35520 58110
L35550 58060
L35600 58040
L35690 58040
L35740 58060
L35760 58110
L35760 58160
L35520 58200
" />
<path d="M36190 58370
L36190 58110
L36170 58060
L36120 58040
L36020 58040
L35980 58060
" />
<path d="M36190 58350
L36140 58370
L36020 58370
L35980 58350
L35950 58300
L35950 58250
L35980 58200
L36020 58180
L36140 58180
L36190 58160
" />
<path d="M36410 58350
L36450 58370
L36550 58370
L36600 58350
L36620 58300
L36620 58280
L36600 58230
L36550 58200
L36480 58200
L36430 58180
L36410 58130
L36410 58110
L36430 58060
L36480 58040
L36550 58040
L36600 58060
" />
<path d="M37050 58040
L37050 58370
" />
<path d="M36830 58040
L36830 58300
L36860 58350
L36910 58370
L36980 58370
L37020 58350
L37050 58320
" />
<path d="M37290 58370
L37290 58040
" />
<path d="M37290 58130
L37310 58090
L37330 58060
L37380 58040
L37430 58040
" />
<path d="M37790 58350
L37740 58370
L37640 58370
L37600 58350
L37570 58300
L37570 58110
L37600 58060
L37640 58040
L37740 58040
L37790 58060
L37810 58110
L37810 58160
L37570 58200
" />
<path d="M38020 58370
L38020 58040
" />
<path d="M38020 58090
L38050 58060
L38100 58040
L38170 58040
L38220 58060
L38240 58110
L38240 58370
" />
<path d="M38240 58110
L38260 58060
L38310 58040
L38380 58040
L38430 58060
L38450 58110
L38450 58370
" />
<path d="M38880 58350
L38830 58370
L38740 58370
L38690 58350
L38670 58300
L38670 58110
L38690 58060
L38740 58040
L38830 58040
L38880 58060
L38910 58110
L38910 58160
L38670 58200
" />
<path d="M39120 58040
L39120 58370
" />
<path d="M39120 58090
L39140 58060
L39190 58040
L39260 58040
L39310 58060
L39330 58110
L39330 58370
" />
<path d="M39500 58040
L39690 58040
" />
<path d="M39570 57870
L39570 58300
L39600 58350
L39640 58370
L39690 58370
" />
<path d="M40450 58350
L40410 58370
L40310 58370
L40260 58350
L40240 58320
L40220 58280
L40220 58130
L40240 58090
L40260 58060
L40310 58040
L40410 58040
L40450 58060
" />
<path d="M40670 58370
L40670 58040
" />
<path d="M40670 57870
L40640 57900
L40670 57920
L40690 57900
L40670 57870
L40670 57920
" />
<path d="M40910 58370
L40910 58040
" />
<path d="M40910 58130
L40930 58090
L40950 58060
L41000 58040
L41050 58040
" />
<path d="M41430 58350
L41380 58370
L41290 58370
L41240 58350
L41220 58320
L41190 58280
L41190 58130
L41220 58090
L41240 58060
L41290 58040
L41380 58040
L41430 58060
" />
<path d="M41860 58040
L41860 58370
" />
<path d="M41640 58040
L41640 58300
L41670 58350
L41720 58370
L41790 58370
L41830 58350
L41860 58320
" />
<path d="M42100 58370
L42100 58040
" />
<path d="M42100 57870
L42070 57900
L42100 57920
L42120 57900
L42100 57870
L42100 57920
" />
<path d="M42260 58040
L42450 58040
" />
<path d="M42330 57870
L42330 58300
L42360 58350
L42410 58370
L42450 58370
" />
<path d="M42600 58350
L42640 58370
L42740 58370
L42790 58350
L42810 58300
L42810 58280
L42790 58230
L42740 58200
L42670 58200
L42620 58180
L42600 58130
L42600 58110
L42620 58060
L42670 58040
L42740 58040
L42790 58060
" />
<path d="M43410 58370
L43410 58040
" />
<path d="M43410 57870
L43380 57900
L43410 57920
L43430 57900
L43410 57870
L43410 57920
" />
<path d="M43640 58040
L43640 58370
" />
<path d="M43640 58090
L43670 58060
L43720 58040
L43790 58040
L43830 58060
L43860 58110
L43860 58370
" />
<path d="M44410 58040
L44600 58040
" />
<path d="M44480 58370
L44480 57940
L44500 57900
L44550 57870
L44600 57870
" />
<path d="M44980 58040
L44980 58370
" />
<path d="M44760 58040
L44760 58300
L44790 58350
L44830 58370
L44910 58370
L44950 58350
L44980 58320
" />
<path d="M45140 58040
L45330 58040
" />
<path d="M45220 57870
L45220 58300
L45240 58350
L45290 58370
L45330 58370
" />
<path d="M45720 58040
L45720 58370
" />
<path d="M45500 58040
L45500 58300
L45520 58350
L45570 58370
L45640 58370
L45690 58350
L45720 58320
" />
<path d="M45950 58370
L45950 58040
" />
<path d="M45950 58130
L45980 58090
L46000 58060
L46050 58040
L46100 58040
" />
<path d="M46450 58350
L46410 58370
L46310 58370
L46260 58350
L46240 58300
L46240 58110
L46260 58060
L46310 58040
L46410 58040
L46450 58060
L46480 58110
L46480 58160
L46240 58200
" />
<path d="M47070 58370
L47070 58040
" />
<path d="M47070 58130
L47100 58090
L47120 58060
L47170 58040
L47220 58040
" />
<path d="M47570 58350
L47520 58370
L47430 58370
L47380 58350
L47360 58300
L47360 58110
L47380 58060
L47430 58040
L47520 58040
L47570 58060
L47600 58110
L47600 58160
L47360 58200
" />
<path d="M47760 58040
L47880 58370
L48000 58040
" />
<path d="M48170 58350
L48220 58370
L48310 58370
L48360 58350
L48380 58300
L48380 58280
L48360 58230
L48310 58200
L48240 58200
L48190 58180
L48170 58130
L48170 58110
L48190 58060
L48240 58040
L48310 58040
L48360 58060
" />
<path d="M48600 58320
L48620 58350
L48600 58370
L48570 58350
L48600 58320
L48600 58370
" />
</g>
<g style="fill:#0000C2; fill-opacity:0.0; 
stroke:#0000C2; stroke-width:0; stroke-opacity:1; 
stroke-linecap:round; stroke-linejoin:round;">
</g>
<g style="fill:#008400; fill-opacity:0.0; 
stroke:#008400; stroke-width:0; stroke-opacity:1; 
stroke-linecap:round; stroke-linejoin:round;">
</g>
<g style="fill:#008400; fill-opacity:1.0; 
stroke:#008400; stroke-width:100; stroke-opacity:1; 
stroke-linecap:round; stroke-linejoin:round;">
<circle cx="48000" cy="34500" r="200" /> 
</g>
<g style="fill:#008400; fill-opacity:1.0; 
stroke:#008400; stroke-width:0; stroke-opacity:1; 
stroke-linecap:round; stroke-linejoin:round;">
</g>
<g style="fill:#008400; fill-opacity:1.0; 
stroke:#008400; stroke-width:100; stroke-opacity:1; 
stroke-linecap:round; stroke-linejoin:round;">
<circle cx="48000" cy="37500" r="200" /> 
</g>
<g style="fill:#008400; fill-opacity:1.0; 
stroke:#008400; stroke-width:0; stroke-opacity:1; 
stroke-linecap:round; stroke-linejoin:round;">
</g>
<g style="fill:#008400; fill-opacity:1.0; 
stroke:#008400; stroke-width:100; stroke-opacity:1; 
stroke-linecap:round; stroke-linejoin:round;">
<circle cx="60000" cy="37500" r="200" /> 
</g> 
</svg>
